<?xml version="1.0" standalone="no"?>
<!DOCTYPE svg PUBLIC "-//W3C//DTD SVG 1.1//EN" "http://www.w3.org/Graphics/SVG/1.1/DTD/svg11.dtd" >
<!--
2013-9-30: Created.
-->
<svg>
<metadata>
Created by iconfont
</metadata>
<defs>

<font id="iconfont" horiz-adv-x="1024" >
  <font-face
    font-family="iconfont"
    font-weight="500"
    font-stretch="normal"
    units-per-em="1024"
    ascent="896"
    descent="-128"
  />
    <missing-glyph />
    
    <glyph glyph-name="x" unicode="x" horiz-adv-x="1001"
d="M281 543q-27 -1 -53 -1h-83q-18 0 -36.5 -6t-32.5 -18.5t-23 -32t-9 -45.5v-76h912v41q0 16 -0.5 30t-0.5 18q0 13 -5 29t-17 29.5t-31.5 22.5t-49.5 9h-133v-97h-438v97zM955 310v-52q0 -23 0.5 -52t0.5 -58t-10.5 -47.5t-26 -30t-33 -16t-31.5 -4.5q-14 -1 -29.5 -0.5
t-29.5 0.5h-32l-45 128h-439l-44 -128h-29h-34q-20 0 -45 1q-25 0 -41 9.5t-25.5 23t-13.5 29.5t-4 30v167h911zM163 247q-12 0 -21 -8.5t-9 -21.5t9 -21.5t21 -8.5q13 0 22 8.5t9 21.5t-9 21.5t-22 8.5zM316 123q-8 -26 -14 -48q-5 -19 -10.5 -37t-7.5 -25t-3 -15t1 -14.5
t9.5 -10.5t21.5 -4h37h67h81h80h64h36q23 0 34 12t2 38q-5 13 -9.5 30.5t-9.5 34.5q-5 19 -11 39h-368zM336 498v228q0 11 2.5 23t10 21.5t20.5 15.5t34 6h188q31 0 51.5 -14.5t20.5 -52.5v-227h-327z" />
    

    
    <glyph glyph-name="infocirlceo" unicode="&#58921;" d="M512 896C229.2 896 0 666.8 0 384s229.2-512 512-512 512 229.2 512 512S794.8 896 512 896zM823.1 72.9c-40.4-40.4-87.5-72.2-139.9-94.3C629-44.4 571.4-56 512-56c-59.4 0-117 11.6-171.2 34.5-52.4 22.2-99.4 53.9-139.9 94.3-40.4 40.4-72.2 87.5-94.3 139.9C83.6 267 72 324.6 72 384c0 59.4 11.6 117 34.5 171.2 22.2 52.4 53.9 99.4 94.3 139.9 40.4 40.4 87.5 72.2 139.9 94.3C395 812.4 452.6 824 512 824c59.4 0 117-11.6 171.2-34.5 52.4-22.2 99.4-53.9 139.9-94.3 40.4-40.4 72.2-87.5 94.3-139.9C940.4 501 952 443.4 952 384c0-59.4-11.6-117-34.5-171.2C895.3 160.4 863.6 113.3 823.1 72.9zM630.2 190.4 545 190.4 545 540.5c0 19.9-16.1 36-36 36l0 0-36 0-60 0c-19.9 0-36-16.1-36-36l0 0c0-19.9 16.1-36 36-36l60 0 0-314.1-85.2 0c-19.9 0-36-16.1-36-36l0 0c0-19.9 16.1-36 36-36L473 118.4l72 0 85.2 0c19.9 0 36 16.1 36 36l0 0C666.2 174.3 650.1 190.4 630.2 190.4zM509 675.5m-36 0a36 36 0 1 0 72 0 36 36 0 1 0-72 0Z"  horiz-adv-x="1024" />

    
    <glyph glyph-name="codesquareo" unicode="&#58934;" d="M888.5 832.5l-753 0c-39.8 0-72-32.2-72-72l0-753.1c0-39.8 32.2-72 72-72l753.1 0c39.8 0 72 32.2 72 72L960.6 760.5C960.5 800.3 928.2 832.5 888.5 832.5zM888.5 7.4l-753 0L135.5 760.5l753 0L888.5 7.4zM203.2 357.8c7-7 16.2-10.5 25.4-10.5 9.2 0 18.5 3.5 25.5 10.6l140.4 140.9c14 14 14 36.6 0.1 50.7L254.2 691.7c-14 14.1-36.8 14.3-50.9 0.3-14.1-14-14.3-36.8-0.3-50.9l115.3-116.8L203.1 408.7C189.1 394.6 189.1 371.9 203.2 357.8zM382.6 383.7c0-19.9 16.1-36 35.9-36.1l198.9-0.3c0 0 0 0 0.1 0 19.9 0 36 16.1 36 35.9 0 19.9-16.1 36-35.9 36.1l-198.9 0.3c0 0 0 0-0.1 0C398.8 419.6 382.7 403.5 382.6 383.7z"  horiz-adv-x="1024" />

    
    <glyph glyph-name="questioncircleo" unicode="&#58940;" d="M512 896C229.2 896 0 666.8 0 384s229.2-512 512-512 512 229.2 512 512S794.8 896 512 896zM823.1 72.9c-40.4-40.4-87.5-72.2-139.9-94.3C629-44.4 571.4-56 512-56s-117 11.6-171.2 34.5c-52.4 22.2-99.4 53.9-139.9 94.3-40.4 40.4-72.2 87.5-94.3 139.9C83.6 267 72 324.6 72 384s11.6 117 34.5 171.2c22.2 52.4 53.9 99.4 94.3 139.9 40.4 40.4 87.5 72.2 139.9 94.3C395 812.4 452.6 824 512 824s117-11.6 171.2-34.5c52.4-22.2 99.4-53.9 139.9-94.3 40.4-40.4 72.2-87.5 94.3-139.9C940.4 501 952 443.4 952 384s-11.6-117-34.5-171.2C895.3 160.4 863.6 113.3 823.1 72.9zM545.9 371.5M506.8 232.1c-1.2 0-2.4 0.1-3.6 0.2-19.8 1.9-34.2 19.6-32.3 39.4 4.9 49.9 41.5 90.2 81.8 130.5 64.5 64.5 65.6 85 66.7 106.7 1.3 25.3-8 49.8-26.4 69.1-20.9 22-50.5 34.6-81.2 34.6-0.1 0-0.2 0-0.2 0-59.1-0.1-107.3-48.3-107.3-107.5 0-19.9-16.1-36-36-36s-36 16.1-36 36c0 47.9 18.6 92.9 52.4 126.8 33.8 33.9 78.8 52.6 126.7 52.7 50.5 0.1 99.3-20.7 133.8-57 32.1-33.8 48.5-77.3 46.1-122.5-2.5-46.3-16.7-82.8-87.7-153.8-36-36-58.7-63-61-86.7C540.8 246 525.1 232.1 506.8 232.1zM505.5 126.8m-43.3 0a43.3 43.3 0 1 0 86.6 0 43.3 43.3 0 1 0-86.6 0Z"  horiz-adv-x="1024" />

    
    <glyph glyph-name="setting" unicode="&#59731;" d="M512 576c-106 0-192-86-192-192s86-192 192-192 192 86 192 192-86 192-192 192z m84.9-276.9C574.2 276.5 544.1 264 512 264s-62.2 12.5-84.9 35.1C404.5 321.8 392 351.9 392 384s12.5 62.2 35.1 84.9S479.9 504 512 504s62.2-12.5 84.9-35.1c22.7-22.7 35.1-52.8 35.1-84.9s-12.5-62.2-35.1-84.9zM1017.1 465.3l-3.5 21.9-82.9 27.7c-7.9 25.3-18 49.7-30.2 73l39.1 78.2-13 18.1c-32.2 44-70.8 82.6-114.9 114.6l-18 13-78.1-39.1c-23.3 12.2-47.6 22.3-73 30.2L615 885.6 593.1 889c-29.3 4.7-55.2 7-81 7S460.5 893.6 431 888.9l-21.9-3.5-27.6-83c-25.2-7.9-49.7-17.9-73-30.2l-78.1 39.2-18-13c-44.1-31.9-82.7-70.5-114.7-114.6l-13-18.1 39.1-78.2c-12.2-23.3-22.3-47.7-30.2-73L10.5 487 7 465.1c-4.7-29.5-7-56-7-81.1 0-25.1 2.3-51.7 7-81.1l3.5-21.9 82.9-27.7c7.8-25.3 17.9-49.7 30.2-73l-38.9-77.9 13-18.1c17.2-23.9 34.5-44.2 52.4-62.2 18-18.1 38.3-35.1 62.1-52.5l18-13 78.1 39.1c23.3-12.3 47.6-22.4 73-30.2l27.6-83 21.9-3.5c29.5-4.7 56-7 81.1-7s51.6 2.3 81.1 7l21.9 3.5 27.6 83c25.2 7.9 49.7 18.1 73 30.2l78.1-39.1 18 13c23.9 17.3 44.2 34.4 62.1 52.5 18 18.1 35.1 38.3 52.4 62.2l13 18.1-39.1 78.2c12.3 23.3 22.4 47.7 30.2 73l82.9 27.7 3.5 21.9c4.7 29.5 7 56 7 81.1 0.6 25-1.7 51.5-6.5 81zM952 384.9c0-17.3-1.2-35.1-3.7-54.3l-45.1-15-30.7-10.4-9.5-30.9c-6.4-21-14.8-41.4-25-60.7L822.9 185l14.4-28.9 21.2-42.4c-11.8-15.3-23.5-28.7-35.4-40.6-12.1-12.2-25.3-23.8-40.6-35.5L740 58.8l-28.7 14.3-28.5-14.8c-19.8-10.3-40.6-18.9-61.4-25.4l-30.7-9.6-10-30.4-15-45.1c-19.2-2.6-36.9-3.7-53.7-3.7-16.7 0-34.4 1.2-53.7 3.7l-15 45.1-10.1 30.7-30.9 9.5c-21 6.5-41.4 14.8-60.7 25L313 73.2l-29-14.4-42.4-21.2c-15.2 11.8-28.6 23.5-40.5 35.4-12.2 12.2-23.9 25.5-35.4 40.6l21.1 42.2 14.3 28.8-14.9 28.4c-10.3 19.7-18.9 40.3-25.2 61l-9.5 30.9-30.6 10.2-45.1 15c-2.6 19.2-3.7 37-3.7 53.7s1.2 34.5 3.7 53.7l44.9 14.9 30.6 10.2 9.5 30.8c6.6 21.2 15.1 41.7 25.2 61.2l14.9 28.5-14.3 28.8-21.2 42.4c22.2 28.4 47.6 53.8 75.9 75.9l42.3-21.2 28.9-14.4 28.6 15c19.2 10.1 39.9 18.7 61.2 25.3l30.7 9.6 10.2 30.5 15 45.1c19.6 2.5 37 3.6 53.6 3.6 17 0 34.4-1.2 53.6-3.7l15-44.9 10.2-30.5 30.7-9.5c21.1-6.6 41.7-15.1 61.2-25.2L711 695l28.8 14.4 42.3 21.2c28.3-22.1 53.8-47.5 76.2-76l-21.1-42.3-14.2-28.5 14.7-28.4c10.3-19.8 18.9-40.6 25.4-61.5l9.6-30.7 30.5-10.2 45.1-15c2.7-19.3 3.9-36.8 3.7-53.1z"  horiz-adv-x="1024" />

    
    <glyph glyph-name="clock" unicode="&#59739;" d="M512 896C229.2 896 0 666.8 0 384s229.2-512 512-512 512 229.2 512 512S794.8 896 512 896z m0-952C269-56 72 141 72 384S269 824 512 824s440-197 440-440-197-440-440-440zM732 392H548V638c0 19.9-16.1 36-36 36s-36-16.1-36-36v-282c0-19.9 16.1-36 36-36h220c19.9 0 36 16.1 36 36s-16.1 36-36 36z"  horiz-adv-x="1024" />

    
    <glyph glyph-name="successful" unicode="&#59771;" d="M357.472 47.578c12.166-0.107 24.365 4.48 33.648 13.763l558.546 558.546c18.35 18.35 18.352 48.11-0.002 66.463l-1.417 1.417c-18.357 18.357-48.11 18.355-66.463 0.002L357.448 163.434 149.67 371.212c-18.352 18.352-48.105 18.353-66.462-0.004l-1.416-1.416c-18.354-18.354-18.356-48.11-0.004-66.462l241.99-241.99c9.294-9.294 21.513-13.882 33.694-13.762z"  horiz-adv-x="1024" />

    
    <glyph glyph-name="unlock" unicode="&#59756;" d="M832.006 448H352V577.992C352 666.362 423.64 738 512 738c66.379 0 123.314-40.425 147.539-98l86.264 40.421C705.843 769.751 616.19 832 512 832c-141.376 0-256-114.615-256-256v-128h-64.006C156.647 448 128 419.345 128 383.996v-383.992C128-35.354 156.651-64 191.994-64h640.012C867.354-64 896-35.345 896 0.004V383.996C896 419.353 867.349 448 832.006 448zM544 168.562V96h-64v72.562c-19.13 11.064-32 31.747-32 55.438 0 35.347 28.654 64 64 64 35.346 0 64-28.653 64-64 0-23.689-12.87-44.372-32-55.438zM702 662m-48 0a48 48 0 1 1 96 0 48 48 0 1 1-96 0Z"  horiz-adv-x="1024" />

    
    <glyph glyph-name="lock" unicode="&#59773;" d="M832.006 448H768V576c0 141.376-114.615 256-256 256-141.376 0-256-114.615-256-256v-128h-64.006C156.647 448 128 419.345 128 383.996v-383.992C128-35.353 156.651-64 191.994-64h640.012C867.353-64 896-35.345 896 0.004V383.996C896 419.353 867.349 448 832.006 448zM544 168.562V96h-64v72.562c-19.13 11.065-32 31.748-32 55.438 0 35.347 28.654 64 64 64 35.346 0 64-28.653 64-64 0-23.689-12.87-44.372-32-55.438zM672 448H352V577.992C352 666.362 423.64 738 512 738c88.365 0 160-71.637 160-160.008V448z"  horiz-adv-x="1024" />

    
    <glyph glyph-name="close" unicode="&#59778;" d="M579.9 384l314 314c18.7 18.7 18.7 49.1 0 67.9-18.7 18.7-49.1 18.7-67.9 0l-314-314-314 314c-18.7 18.7-49.1 18.7-67.9 0-18.7-18.7-18.7-49.1 0-67.9l314-314-314-314c-18.7-18.7-18.7-49.1 0-67.9 18.7-18.7 49.1-18.7 67.9 0l314 314 314-314c18.7-18.7 49.1-18.7 67.9 0 18.7 18.7 18.7 49.1 0 67.9l-314 314z"  horiz-adv-x="1024" />

    
    <glyph glyph-name="edit1" unicode="&#59080;" d="M924 8H100c-19.9 0-36-16.1-36-36s16.1-36 36-36h824c19.9 0 36 16.1 36 36s-16.1 36-36 36zM296 126l235.5 99.7c3.8 1.6 7.2 3.9 10.2 6.8l397.2 397.2c28.1 28.1 28.3 73.9 0.2 102L859.8 811c-28.1 28.1-73.9 27.9-102-0.2L360.6 413.6c-2.9-2.9-5.2-6.4-6.8-10.2L254 168c-5.6-13.2-1.7-26.5 6.8-35.1 8.5-8.6 21.9-12.5 35.2-6.9z m512.7 633.9l0.2 0.2 79.2-79.2-0.2-0.2-62-62-79.2 79.2 62 62zM417 368.2L695.8 647l79.2-79.2L496.2 289l-137.4-58.2L417 368.2z"  horiz-adv-x="1024" />

    
    <glyph glyph-name="anchor" unicode="&#59785;" d="M849 320c-24.3 0-39.921-20.19-44-44-19.4-128.3-120.7-229.6-249-248.8V360h168c24.3 0 44 19.7 44 44s-19.7 44-44 44H556v70.1c67 19.1 116 80.8 116 153.9 0 88.4-71.6 160-160 160s-160-71.6-160-160c0-73.1 49-134.8 116-153.9V448H300c-24.3 0-44-19.7-44-44s19.7-44 44-44h168v-332.8C339.7 46.4 238.4 147.7 219.2 276c-3.169 26.953-19.9 44-44.2 44-24.3 0-44.5-19.7-44.5-44C152.3 84.6 314.8-64 512-64s359.7 148.6 381.5 340c0 24.3-20.2 44-44.5 44zM424 672c0 48.6 39.4 88 88 88s88-39.4 88-88-39.4-88-88-88-88 39.4-88 88z"  horiz-adv-x="1024" />

    
    <glyph glyph-name="solit-cells" unicode="&#59828;" d="M472 444h80v-80h-80zM616 300h80v-80h-80zM472 300h80v-80h-80zM760 300h80v-80h-80zM888 832H136c-39.8 0-72-32.2-72-72v-752c0-39.8 32.2-72 72-72h752c39.8 0 72 32.2 72 72V760c0 39.8-32.2 72-72 72z m-752-72h340v-176H136V760z m752-752H136V512h752v-504z m0 576H548V760h340v-176zM184 300h80v-80h-80zM472 156h80v-80h-80zM328 300h80v-80h-80z"  horiz-adv-x="1024" />

    
    <glyph glyph-name="copy" unicode="&#59836;" d="M856 640H551.4c-18.4 0-36.1-7.1-49.5-19.7l-159.4-151C328.1 455.7 320 436.8 320 417v-409c0-39.8 32.2-72 72-72h464c39.8 0 72 32.2 72 72V568c0 39.8-32.2 72-72 72z m-301-72v-152H392l163 152z m301-560H392V352h163c35.346 0 64 28.654 64 64V568h237v-560zM168 554h152.7c35.346 0 64 28.654 64 64V760H632v-56h72v56c0 39.8-32.2 72-72 72H327.4c-18.4 0-36.1-7.1-49.5-19.7l-159.4-151C104.1 647.7 96 628.8 96 609v-409c0-39.8 32.2-72 72-72h88v72h-88V554z m153 196.7V618H178.7L321 750.7z"  horiz-adv-x="1024" />

    
    <glyph glyph-name="cut" unicode="&#59837;" d="M768 320c-28.2 0-55-6.1-79.2-17l-85.3 85.3 188.2 188.2c88.5 89.3 111.8 173 70 251L513 478.8 164.4 827.5c-41.8-78-18.5-161.7 70-251l188.2-188.2-86-86C312 313.7 284.8 320 256 320c-106 0-192-86-192-192s86-192 192-192 192 86 192 192c0 30.5-7.1 59.4-19.8 85l84.8 84.8 83.5-83.5C583.4 188.3 576 159 576 128c0-106 86-192 192-192s192 86 192 192-86 192-192 192zM256 8c-66.3 0-120 53.7-120 120s53.7 120 120 120 120-53.7 120-120-53.7-120-120-120z m256 336c-22.1 0-40 17.9-40 40s17.9 40 40 40 40-17.9 40-40-17.9-40-40-40z m256-336c-66.3 0-120 53.7-120 120s53.7 120 120 120 120-53.7 120-120-53.7-120-120-120z"  horiz-adv-x="1024" />

    
    <glyph glyph-name="paste" unicode="&#59838;" d="M136 768h61.5c13.2 37.3 48.7 64 90.5 64h37.5C338.6 869.3 374.2 896 416 896s77.4-26.7 90.5-64H544c41.8 0 77.3-26.7 90.5-64H696c39.8 0 72-32.2 72-72v-120h120c39.8 0 72-32.2 72-72v-560c0-39.8-32.2-72-72-72H456c-39.8 0-72 32.2-72 72v56H136c-39.8 0-72 32.2-72 72V696c0 39.8 32.2 72 72 72z m280 64c-19.9 0-36-16.1-36-36s16.1-36 36-36 36 16.1 36 36-16.1 36-36 36z m40-888h432V504H640v-120c0-35.346-28.654-64-64-64H456v-376z m120 440v90.5L486 384h90zM136 72h248V354.2c0 19.1 7.6 37.4 21.1 50.9l149.8 149.8c13.5 13.5 31.8 21.1 50.9 21.1H696V696h-56v-32c0-13.3-10.7-24-24-24H216c-13.3 0-24 10.7-24 24v32h-56v-624z"  horiz-adv-x="1024" />

    
    <glyph glyph-name="print" unicode="&#59865;" d="M888 464h-56V581.5c0 17-6.7 33.3-18.7 45.3L626.7 813.3c-12 12-28.3 18.7-45.3 18.7H256c-35.3 0-64-28.7-64-64v-304h-56c-39.8 0-72-32.2-72-72v-264c0-8.8 7.2-16 16-16h112v-112c0-35.3 28.7-64 64-64h512c35.3 0 64 28.7 64 64V112h112c8.8 0 16 7.2 16 16V392c0 39.8-32.2 72-72 72zM760 95v-87H264V184h496v-89z m0 386v-89H264V760h312v-112c0-39.8 32.2-72 72-72h112v-95z m100-169c-19.9 0-36 16.1-36 36s16.1 36 36 36 36-16.1 36-36-16.1-36-36-36z"  horiz-adv-x="1024" />

    
    <glyph glyph-name="undo" unicode="&#59866;" d="M143.3 432.7C234.097 550.275 376.455 626 536.5 626c240.492 0 441.048-170.984 486.734-398.019C947.462 367.941 799.332 463 629 463c-141.033 0-266.844-65.168-348.965-167.035l126.994-126.994c9.373-9.373 9.373-24.569 0-33.942A24 24 0 0 0 390.06 128H32c-17.673 0-32 14.327-32 32V518.059c0 13.255 10.745 24 24 24a24 24 0 0 0 16.97-7.03L143.3 432.7z"  horiz-adv-x="1024" />

    
    <glyph glyph-name="redo" unicode="&#59867;" d="M999.2 542.1c-6.4 0-12.5-2.5-17-7L879.9 432.7C789.1 550.3 646.8 626 486.7 626 246.2 626 45.7 455 0 228c75.8 140 223.9 235 394.2 235 141 0 266.8-65.2 349-167l-127-127c-9.4-9.4-9.4-24.6 0-33.9 4.5-4.5 10.6-7 17-7h358.1c17.7 0 32 14.3 32 32v358c-0.1 13.2-10.8 24-24.1 24z"  horiz-adv-x="1024" />

    
    <glyph glyph-name="strikethrough" unicode="&#59868;" d="M401.7 456c-40.4 12.6-71.2 27.9-93.5 46.7-29 24.4-43.6 54.9-43.6 91.3 0 44.5 21.1 83 58.9 109.7 36.4 25.7 86.8 39.5 144.8 39.5 113.1 0 190.3-51.6 210-138.2 8.4-37.2 33.1-58.2 64.4-54.5 31.3 3.7 48.2 27.1 46.4 54.5-8.4 125.8-150.6 227-315.6 227-191.4 0-323.3-102.1-323.3-246 0-51.1 14.7-94.3 44.7-130h206.8zM988 384H36c-19.9 0-36-16.1-36-36s16.1-36 36-36h518.2c46.2-13.5 78.1-28.6 100-47.9 25.9-22.9 37.9-51.8 37.9-89.1 0-46.2-22-85-62.2-111.5-38.5-25.4-92.4-38.6-156.4-38.6-125.1 0-211.8 49.6-233.5 142.6-8.7 37.3-27.3 54.8-59.1 54.8s-54.2-24.7-50.9-54.8C145 30.4 281.5-64 463.8-64 668.1-64 810 40.4 810 186.4c0 53.8-11.4 93.8-36.5 125.6H988c19.9 0 36 16.1 36 36s-16.1 36-36 36z"  horiz-adv-x="1024" />

    
    <glyph glyph-name="underline" unicode="&#59869;" d="M828-24H196c-19.9 0-36-16.1-36-36s16.1-36 36-36h632c19.9 0 36 16.1 36 36s-16.1 36-36 36zM812 864c-28.7 0-52-23.3-52-52v-396c0-137-111-248-248-248S264 279 264 416V812c0 28.7-23.3 52-52 52s-52-23.3-52-52v-396c0-194.4 157.6-352 352-352s352 157.6 352 352V812c0 28.7-23.3 52-52 52z"  horiz-adv-x="1024" />

    
    <glyph glyph-name="bold" unicode="&#59870;" d="M690.3 406.3C773.1 437.9 832 518.1 832 612c0 119.5-95.3 216.7-214 219.9V832h-5.9-0.1-388c-17.7 0-32-14.3-32-32v-832c0-17.7 14.3-32 32-32H674.4v0.3C799-57.2 898 45.8 898 172c0 120.8-90.7 220.4-207.7 234.3zM384 704h162c69.8-1.1 126-58 126-128s-56.2-126.9-126-128H384V704z m214-640H384V344h214c77.3 0 140-62.7 140-140s-62.7-140-140-140z"  horiz-adv-x="1024" />

    
    <glyph glyph-name="clearformatting" unicode="&#59871;" d="M924 8H100c-19.9 0-36-16.1-36-36s16.1-36 36-36h824c19.9 0 36 16.1 36 36s-16.1 36-36 36zM118.7 223.1l134.6-125.5 352.2 2.3 322 345.3c27.1 29.1 25.5 74.6-3.6 101.8L654.8 798c-29.1 27.1-74.6 25.5-101.8-3.6L115.1 324.8c-27.1-29.1-25.5-74.6 3.6-101.7z m225.7 242l269.1-251-39.6-42.5-292.5-1.9-113.6 106 176.6 189.4z"  horiz-adv-x="1024" />

    
    <glyph glyph-name="justify" unicode="&#59873;" d="M48 672h928c26.5 0 48 21.5 48 48s-21.5 48-48 48H48c-26.5 0-48-21.5-48-48s21.5-48 48-48zM976 96H48c-26.5 0-48-21.5-48-48s21.5-48 48-48h928c26.5 0 48 21.5 48 48s-21.5 48-48 48zM976 544H48c-26.5 0-48-21.5-48-48s21.5-48 48-48h928c26.5 0 48 21.5 48 48s-21.5 48-48 48zM976 320H48c-26.5 0-48-21.5-48-48s21.5-48 48-48h928c26.5 0 48 21.5 48 48s-21.5 48-48 48z"  horiz-adv-x="1024" />

    
    <glyph glyph-name="align-left" unicode="&#59874;" d="M48 448h928c26.5 0 48 21.5 48 48s-21.5 48-48 48H48c-26.5 0-48-21.5-48-48s21.5-48 48-48zM48 672h544c26.5 0 48 21.5 48 48s-21.5 48-48 48H48c-26.5 0-48-21.5-48-48s21.5-48 48-48zM976 96H48c-26.5 0-48-21.5-48-48s21.5-48 48-48h928c26.5 0 48 21.5 48 48s-21.5 48-48 48zM48 224h544c26.5 0 48 21.5 48 48s-21.5 48-48 48H48c-26.5 0-48-21.5-48-48s21.5-48 48-48z"  horiz-adv-x="1024" />

    
    <glyph glyph-name="align-center" unicode="&#59875;" d="M240 672h544c26.5 0 48 21.5 48 48s-21.5 48-48 48H240c-26.5 0-48-21.5-48-48s21.5-48 48-48zM976 96H48c-26.5 0-48-21.5-48-48s21.5-48 48-48h928c26.5 0 48 21.5 48 48s-21.5 48-48 48zM48 448h928c26.5 0 48 21.5 48 48s-21.5 48-48 48H48c-26.5 0-48-21.5-48-48s21.5-48 48-48zM240 320c-26.5 0-48-21.5-48-48s21.5-48 48-48h544c26.5 0 48 21.5 48 48s-21.5 48-48 48H240z"  horiz-adv-x="1024" />

    
    <glyph glyph-name="bg-color" unicode="&#59876;" d="M982.3 665.9L863.8 784.3c-54.6 54.6-143 54.6-197.6 0L290.7 409c-18.2-18.2-23.1-44.5-14.9-67L199 265.2c-26.5-26.5-30.5-67.1-11.8-97.9L8.9-11c-5-5-7.9-11.8-7.9-19-0.1-14.9 12-27 26.8-27l279.4-1.3c6.4 0 12.6 2.5 17.1 7l40.7 40.7c30.7-18.7 71.4-14.8 97.9 11.8l76.8 76.8c22.7-8.3 48.9-3.3 67.1 14.9l375.5 375.4c54.6 54.5 54.6 143 0 197.6zM423.4 63.3c-9.4-9.4-24.6-9.4-33.8 0L261.1 191.7c-9.4 9.4-9.4 24.5 0 33.8l60.7 60.7L484.1 124l-60.7-60.7z m138.3 86.1L347.1 363.9l282.2 282.2L844 431.6 561.7 149.4z m367 366.8l-33.8-33.8-214.6 214.5 33.8 33.8c28 28 73.6 28 101.6 0l112.9-112.8c28.1-28.1 28.1-73.6 0.1-101.7z"  horiz-adv-x="1024" />

    
    <glyph glyph-name="unorderedlist" unicode="&#59877;" d="M300 748h680c24.3 0 44-19.7 44-44s-19.7-44-44-44H300c-24.3 0-44 19.7-44 44s19.7 44 44 44z m0-320h680c24.3 0 44-19.7 44-44s-19.7-44-44-44H300c-24.3 0-44 19.7-44 44s19.7 44 44 44z m0-320h680c24.3 0 44-19.7 44-44s-19.7-44-44-44H300c-24.3 0-44 19.7-44 44s19.7 44 44 44zM64 640c-35.346 0-64 28.654-64 64 0 35.346 28.654 64 64 64 35.346 0 64-28.654 64-64 0-35.346-28.654-64-64-64z m0-320c-35.346 0-64 28.654-64 64 0 35.346 28.654 64 64 64 35.346 0 64-28.654 64-64 0-35.346-28.654-64-64-64z m0-320c-35.346 0-64 28.654-64 64 0 35.346 28.654 64 64 64 35.346 0 64-28.654 64-64 0-35.346-28.654-64-64-64z"  horiz-adv-x="1024" />

    
    <glyph glyph-name="orderedlist" unicode="&#59879;" d="M300.01501 660h680c24.3 0 44 19.7 44 44s-19.7 44-44 44H300.01501c-24.3 0-44-19.7-44-44s19.7-44 44-44zM980.01501 428H300.01501c-24.3 0-44-19.7-44-44s19.7-44 44-44h680c24.3 0 44 19.7 44 44s-19.7 44-44 44zM980.01501 108H300.01501c-24.3 0-44-19.7-44-44s19.7-44 44-44h680c24.3 0 44 19.7 44 44s-19.7 44-44 44zM66.81501 599.2h48.9V809h-40l-0.5-3.4c-1.1-7.1-3.3-13-6.5-17.6-3.3-4.7-7.4-8.5-12.2-11.4-4.9-2.9-10.4-5-16.6-6.1-6.4-1.2-13-1.7-19.8-1.5H16.01501v-38.9h50.8v-130.9zM157.41501 319.9H66.11501c3.5 4.1 7.4 7.8 11.6 11.1 6.4 5.1 13.1 9.9 19.9 14.3 6.9 4.5 13.8 9.1 20.7 13.7 7.1 4.8 13.4 10.1 19 16 5.7 6 10.3 12.9 13.7 20.6 3.5 7.8 5.3 17.1 5.3 27.9 0 10.4-2 19.8-6 28.2-4 8.4-9.4 15.5-16.2 21.2-6.7 5.7-14.5 10.1-23.4 13.1-8.8 3-18 4.5-27.7 4.5-12.7 0-23.9-2.2-33.8-6.5-9.9-4.4-18.1-10.5-24.7-18.4-6.5-7.8-11.4-16.9-14.6-27.3-3.2-10.3-4.6-21.5-4.2-33.5l0.1-3.8h47.1v4c0 5.1 0.5 10.3 1.5 15.5 1 5.1 2.6 9.7 4.9 13.8 2.2 4 5.1 7.2 8.7 9.6 3.4 2.3 7.7 3.5 12.9 3.5 7.9 0 14.1-2.4 19-7.1 4.9-4.7 7.3-11.3 7.3-20.1 0-5.5-1.2-10.3-3.7-14.4-2.6-4.5-5.8-8.5-9.7-12.1-4-3.7-8.3-7-13.1-10.1-5-3.2-9.8-6.4-14.3-9.5-8.7-6-16.9-11.9-24.8-17.7-8-5.9-15-12.5-21-19.5-6.1-7.2-10.9-15.3-14.4-24.3-3.6-9.1-5.3-19.8-5.3-32v-4h156.3v43.3zM129.01501 71c5.7 3.2 10.4 7.5 13.8 13 5.1 8.1 7.7 17.5 7.7 28.1 0 9.7-2.2 18.4-6.6 25.9-4.3 7.4-9.9 13.6-16.8 18.8-6.8 5.1-14.5 8.9-23 11.4-8.4 2.5-16.9 3.8-25.4 3.8-10.9 0-20.8-1.8-29.8-5.3-9-3.6-16.7-8.6-23.2-15.2-6.4-6.5-11.4-14.3-15-23.4-3.5-9-5.5-18.9-5.9-29.7l-0.2-4.1h47.1l-0.1 4c-0.2 9.5 2.1 17.2 6.8 23.3 4.5 5.8 11.2 8.7 20.4 8.7 6.6 0 12.4-2 17.4-6 4.8-3.8 7.2-9.3 7.2-16.8 0-4.9-1.1-8.7-3.3-11.4-2.4-2.9-5.4-5.2-9.1-6.8-3.9-1.7-8.2-2.7-12.8-3-4.8-0.4-9.3-0.4-13.5 0l-4.3 0.4v-37.1h4c4.9 0 10.1-0.1 15.5-0.4 5.1-0.3 9.7-1.2 13.9-2.9 3.9-1.6 7.1-4 9.7-7.5 2.4-3.3 3.7-8.3 3.7-15.2 0-8.7-2.7-15.4-8.2-20.3-5.6-5-12.4-7.5-20.7-7.5-5.4 0-9.9 0.9-13.7 2.8-3.8 1.9-7 4.3-9.5 7.4-2.6 3.2-4.5 6.9-5.9 11.4-1.4 4.6-2.2 9.4-2.4 14.4l-0.1 3.8H0.11501l-0.1-3.9c-0.2-12.2 1.6-23.1 5.3-32.7 3.8-9.6 9.1-17.7 16.1-24.3 7-6.6 15.4-11.7 25.2-15.2 9.8-3.4 20.6-5.1 32.3-5.1 10.2 0 20.1 1.5 29.5 4.5 9.5 3 17.9 7.5 25.2 13.4 7.4 5.9 13.3 13.3 17.7 22.1 4.4 8.8 6.6 18.9 6.6 30 0 12.4-3.4 23.1-10.3 32.1-4.8 6.4-11 11.3-18.6 14.5z"  horiz-adv-x="1024" />

    
    <glyph glyph-name="align-right" unicode="&#59880;" d="M976 768H432c-26.51 0-48-21.49-48-48s21.49-48 48-48h544c26.51 0 48 21.49 48 48s-21.49 48-48 48z m0-224H48c-26.51 0-48-21.49-48-48s21.49-48 48-48h928c26.51 0 48 21.49 48 48s-21.49 48-48 48z m0-448H48c-26.51 0-48-21.49-48-48s21.49-48 48-48h928c26.51 0 48 21.49 48 48s-21.49 48-48 48z m0 224H432c-26.51 0-48-21.49-48-48s21.49-48 48-48h544c26.51 0 48 21.49 48 48s-21.49 48-48 48z"  horiz-adv-x="1024" />

    
    <glyph glyph-name="quote" unicode="&#59881;" d="M465.444 617.341l-12.727 61.657C251.042 650.076 96 487.49 96 266.555 96 160.019 182.392 88 274.359 88c98.469 0 178.358 79.978 178.358 178.555 0 98.577-79.89 178.555-178.358 178.555h-3.252c34.65 83.419 106.272 147.587 194.337 172.231zM928 618.343L915.273 680c-201.675-28.922-356.717-191.508-356.717-412.443 0-106.536 86.392-178.555 178.359-178.555 98.469 0 178.358 79.977 178.358 178.555 0 98.577-79.89 178.555-178.358 178.555h-3.252C768.313 529.53 839.935 593.698 928 618.342z"  horiz-adv-x="1024" />

    
    <glyph glyph-name="code" unicode="&#59882;" d="M260 602c15.7-15.6 15.7-40.9 0-56.5L98.6 384l161.5-161.4c15.6-15.7 15.7-41 0-56.6-15.7-15.6-41-15.6-56.6 0L14 355.5C6.1 363.3 2.2 373.7 2.3 384c-0.1 10.3 3.8 20.7 11.7 28.5L203.4 602c15.7 15.6 41 15.6 56.6 0z m750-189.5c7.9-7.8 11.8-18.2 11.7-28.5 0.1-10.3-3.8-20.6-11.7-28.5L820.6 165.9c-15.7-15.6-41-15.7-56.6 0-15.6 15.7-15.6 41 0 56.6L925.4 384 763.9 545.4c-15.6 15.7-15.7 41 0 56.6 15.7 15.6 41 15.6 56.6 0L1010 412.5zM709.2 754.8c19.5-10.3 26.9-34.6 16.5-54.1l-356.8-671c-10.4-19.5-34.6-26.9-54.1-16.5-19.5 10.4-26.9 34.6-16.5 54.1l356.8 671c10.4 19.5 34.6 26.9 54.1 16.5z"  horiz-adv-x="1024" />

    
    <glyph glyph-name="insertlink" unicode="&#59883;" d="M414.1 64.2c-61.3-61.3-160.7-61.3-222 0-61.3 61.3-61.3 160.7 0 222l140.7 140.7c15.63 15.63 15.63 40.97 0 56.6-15.63 15.63-40.97 15.63-56.6 0L135.5 342.8c-92.6-92.6-92.6-242.6 0-335.2s242.6-92.6 335.2 0l140.7 140.7c15.63 15.63 15.63 40.97 0 56.6-15.63 15.63-40.97 15.63-56.6 0L414.1 64.2zM887.8 760c-92.6 92.6-242.6 92.6-335.2 0L411.9 619.3c-15.63-15.63-15.63-40.97 0-56.6 15.63-15.63 40.97-15.63 56.6 0l140.7 140.7c61.3 61.3 160.7 61.3 222 0 61.3-61.3 61.3-160.7 0-222L690.5 340.7c-15.63-15.63-15.63-40.97 0-56.6 15.63-15.63 40.97-15.63 56.6 0l140.7 140.7c92.6 92.6 92.6 242.7 0 335.2zM320 192.2c17.2-17.2 45-17.2 62.2 0l321 321c17.2 17.2 17.2 45 0 62.2-17.2 17.2-45 17.2-62.2 0l-321-321c-17.2-17.1-17.2-45 0-62.2z"  horiz-adv-x="1024" />

    
    <glyph glyph-name="increaseindent" unicode="&#59884;" d="M48 768h928c26.51 0 48-21.49 48-48s-21.49-48-48-48H48c-26.51 0-48 21.49-48 48s21.49 48 48 48z m448-224h480c26.51 0 48-21.49 48-48s-21.49-48-48-48H496c-26.51 0-48 21.49-48 48s21.49 48 48 48zM48 96h928c26.51 0 48-21.49 48-48s-21.49-48-48-48H48c-26.51 0-48 21.49-48 48s21.49 48 48 48z m448 224h480c26.51 0 48-21.49 48-48s-21.49-48-48-48H496c-26.51 0-48 21.49-48 48s21.49 48 48 48zM17.27 558.11l232.005-155.847c10.086-6.775 12.77-20.444 5.994-30.53a22 22 0 0 0-5.994-5.995L17.269 209.892c-5.083-3.415-11.97-2.062-15.385 3.021A11.087 11.087 0 0 0 0 219.095v329.81c0 6.124 4.964 11.088 11.087 11.088 2.202 0 4.354-0.656 6.182-1.884z"  horiz-adv-x="1024" />

    
    <glyph glyph-name="decreaseindent" unicode="&#59885;" d="M48 768h928c26.51 0 48-21.49 48-48s-21.49-48-48-48H48c-26.51 0-48 21.49-48 48s21.49 48 48 48z m480-224h448c26.51 0 48-21.49 48-48s-21.49-48-48-48H528c-26.51 0-48 21.49-48 48s21.49 48 48 48zM48 96h928c26.51 0 48-21.49 48-48s-21.49-48-48-48H48c-26.51 0-48 21.49-48 48s21.49 48 48 48z m480 224h448c26.51 0 48-21.49 48-48s-21.49-48-48-48H528c-26.51 0-48 21.49-48 48s21.49 48 48 48zM302.234 574.043L47.973 402.758c-10.36-6.979-13.1-21.034-6.122-31.394a22.617 22.617 0 0 1 6.122-6.121l254.26-171.284c5.222-3.517 12.305-2.136 15.822 3.085a11.398 11.398 0 0 1 1.945 6.368V564.589c0 6.295-5.103 11.398-11.398 11.398-2.269 0-4.486-0.677-6.368-1.944z"  horiz-adv-x="1024" />

    
    <glyph glyph-name="checklist" unicode="&#59886;" d="M136 760v-752h752V760H136z m-8 72h768c35.346 0 64-28.654 64-64v-768c0-35.346-28.654-64-64-64H128c-35.346 0-64 28.654-64 64V768c0 35.346 28.654 64 64 64zM739.716 604.284c15.62 15.621 40.947 15.621 56.568 0 15.621-15.62 15.621-40.947 0-56.568l-384-384c-17.848-17.849-47.564-14.907-61.566 6.096l-128 192c-12.254 18.381-7.287 43.216 11.094 55.47 18.381 12.254 43.216 7.287 55.47-11.094l100.935-151.402 349.499 349.498z"  horiz-adv-x="1024" />

    
    <glyph glyph-name="image" unicode="&#59887;" d="M72 696v-624h880V696H72z m0 72h880c39.765 0 72-32.235 72-72v-624c0-39.765-32.235-72-72-72H72c-39.765 0-72 32.235-72 72V696c0 39.765 32.235 72 72 72zM346.09 581.9100000000001l283.242-283.242c5.99-5.99 15.612-6.273 21.944-0.645l75.753 67.336c12 10.668 30.049 10.79 42.193 0.287l115.71-100.074A32 32 0 0 0 896 241.36800000000005V128H128V341.33299999999997a32 32 0 0 0 6.4 19.2l163.462 217.95c10.604 14.138 30.662 17.004 44.8 6.4a32 32 0 0 0 3.428-2.973zM840 520c-30.928 0-56 25.072-56 56s25.072 56 56 56 56-25.072 56-56-25.072-56-56-56z"  horiz-adv-x="1024" />

    
    <glyph glyph-name="Attachment" unicode="&#59888;" d="M885.57 629.863c47.69-47.188 74.124-110.153 74.429-177.21 0.1-32.48-6.05-64.18-18.276-94.444-12.54-31.05-31.179-58.922-55.356-82.898L641.494 33.086c-32.023-31.725-69.652-56.288-111.704-72.97C489.689-55.904 447.215-64 403.386-64c-45.081 0.202-87.942 8.511-128.203 24.718-42.14 16.979-79.86 41.73-111.88 73.452-32.225 31.826-57.187 69.058-74.27 110.708-16.52 39.993-24.931 82.388-25.032 125.973-0.101 43.414 8.082 85.81 24.328 125.975 16.995 41.682 41.864 78.914 73.88 110.531L478.348 820.062C486.126 827.726 496.567 832 507.54 832c10.996 0 21.43-4.29 29.261-12.006 7.888-7.657 12.23-18.026 12.23-29.093 0-10.96-4.336-21.314-12.19-29.054L220.71 449.25c-47.844-47.268-74.12-110.554-73.926-178.178 0.097-67.665 26.7-131.147 74.916-178.79 48.219-47.642 112.505-73.989 180.992-74.183 68.874 0 132.767 25.937 180.591 72.991l244.88 242.33c31.842 31.464 49.345 73.721 49.249 118.905-0.096 45.148-17.864 87.532-50.036 119.42-32.295 31.82-75.288 49.415-121.042 49.511-46.126 0-88.79-17.344-120.539-48.809L354.985 344.185c-12.108-11.929-18.713-27.908-18.622-45.074 0-17.176 6.756-33.297 19.034-45.486 12.146-12.057 28.567-18.778 46.106-18.87 17.508 0 33.703 6.556 45.72 18.483L649.79 453.449c7.779 7.664 18.22 11.939 29.193 11.939 11.066 0 21.496-4.24 29.162-11.907 7.887-7.657 12.23-18.026 12.23-29.093 0-10.96-4.336-21.314-12.191-29.055L505.616 195.122c-27.718-27.308-64.627-42.366-103.914-42.366-39.753 0.104-76.742 15.301-104.617 42.87-27.888 27.58-43.304 64.295-43.407 103.37-0.103 39.202 15.126 75.924 42.912 103.404l230.806 228.156c24.09 23.79 52.3 42.205 83.769 54.733 30.276 11.99 62.048 18.065 94.575 18.065 68.37-0.102 131.953-26.219 179.83-73.491z"  horiz-adv-x="1024" />

    
    <glyph glyph-name="recent-edit" unicode="&#59889;" d="M736 448c-159.1 0-288-128.9-288-288s128.9-288 288-288 288 128.9 288 288-128.9 288-288 288z m0-504c-119.3 0-216 96.7-216 216s96.7 216 216 216 216-96.7 216-216-96.7-216-216-216zM864 192h-96v96c0 17.7-14.3 32-32 32s-32-14.3-32-32v-128c0-17.7 14.3-32 32-32h128c17.7 0 32 14.3 32 32s-14.3 32-32 32zM412-56H136V569h220c19.9 0 36 16.1 36 36V824h368v-248c0-19.9 16.1-36 36-36s36 16.1 36 36V824c0 39.8-32.2 72-72 72H349.8c-19.1 0-37.4-7.6-50.9-21.1L85.1 661.1A71.983 71.983 0 0 1 64 610.2V-56c0-39.8 32.2-72 72-72h276c19.9 0 36 16.1 36 36s-16.1 36-36 36z m-92 850.2V641H166.8L320 794.2z"  horiz-adv-x="1024" />

    
    <glyph glyph-name="import-word" unicode="&#59890;" d="M963.6 576H540.4c-33.4 0-60.4-27.1-60.4-60.4v-423.1c0-33.4 27.1-60.4 60.4-60.4h423.1c33.4 0 60.4 27.1 60.4 60.4V515.6c0.1 33.3-27 60.4-60.3 60.4zM866 180h-70l-44 166.5h-1L708.9 180h-70.4L560 428h71.8l45.5-168.4h1L719.4 428h66.1l42.1-167.9h1L874.1 428H944l-78-248zM796-56H136V569h220c19.9 0 36 16.1 36 36V824h368v-148c0-19.9 16.1-36 36-36s36 16.1 36 36V824c0 39.8-32.2 72-72 72H349.8c-19.1 0-37.4-7.6-50.9-21.1L85.1 661.1A71.983 71.983 0 0 1 64 610.2V-56c0-39.8 32.2-72 72-72h660c19.9 0 36 16.1 36 36s-16.1 36-36 36zM320 794.2V641H166.8L320 794.2z"  horiz-adv-x="1024" />

    
    <glyph glyph-name="delete" unicode="&#59891;" d="M795.5 564c-20.5 0-37.7-15.6-39.7-36l-47.2-476H623l14.5 414.7c0.6 17.7-13.2 32.5-30.9 33.1-17.7 0.6-32.5-13.2-33.1-30.9l-14.6-417h-94.5l-14.6 418c-0.6 17.7-15.4 31.5-33.1 30.9-17.7-0.6-31.5-15.4-30.9-33.1L400.4 52h-85.6l-47.2 476c-2 20.4-19.2 36-39.7 36-1.1 0-2.2-0.1-3.2-0.2-18-1.8-31.2-17.8-29.4-35.8l53.4-539.1c3.7-36.8 34.6-64.9 71.6-64.9H703c37 0 68 28.1 71.6 64.9L828.1 528c0.1 1.1 0.2 2.2 0.2 3.2 0 18.1-14.7 32.8-32.8 32.8zM893.2 628.2l-7.5 54.8c-5.7 41.8-41.5 73-83.7 73H648.5l-2.3 29c-2.6 33.3-30.4 59-63.8 59H440.9c-33.4 0-61.2-25.7-63.8-59l-2.3-29H221.3c-42.2 0-78-31.2-83.7-73l-7.5-54.8c-0.1-0.7-0.1-1.4-0.1-2.2 0-8.8 7.2-16 16-16h731.3c0.7 0 1.5 0 2.2 0.1 8.7 1.2 14.9 9.3 13.7 18.1zM431 756l1.9 24.6c0.3 4.2 3.8 7.4 8 7.4h141.6c4.2 0 7.7-3.2 8-7.4l1.9-24.6H431z"  horiz-adv-x="1024" />

    
    <glyph glyph-name="table" unicode="&#59892;" d="M888 832H136c-39.8 0-72-32.2-72-72v-752c0-39.8 32.2-72 72-72h752c39.8 0 72 32.2 72 72V760c0 39.8-32.2 72-72 72zM685.3 405.3H888v-162.7H685.3V405.3z m-72-162.6H410.7V405.3h202.7v-162.6z m0 234.6H410.7V640h202.7v-162.7zM338.7 640v-162.7H136V640h202.7zM136 405.3h202.7v-162.7H136V405.3z m0-397.3V170.7h202.7V8H136z m274.7 0V170.7h202.7V8H410.7z m274.6 0V170.7H888V8H685.3zM888 477.3H685.3V640H888v-162.7z"  horiz-adv-x="1024" />

    
    <glyph glyph-name="new-document" unicode="&#59967;" d="M824 896H413.8c-19.1 0-37.4-7.6-50.9-21.1L149.1 661.1a71.983 71.983 0 0 1-21.1-50.9V-56c0-39.8 32.2-72 72-72h660c19.9 0 36 16.1 36 36V824c0 39.8-32.2 72-72 72zM384 794.2V641H230.8L384 794.2zM200-56V569h220c19.9 0 36 16.1 36 36V824h368v-880H200zM480 160H320c-17.7 0-32-14.3-32-32s14.3-32 32-32h160c17.7 0 32 14.3 32 32s-14.3 32-32 32zM704 480H320c-17.7 0-32-14.3-32-32s14.3-32 32-32h384c17.7 0 32 14.3 32 32s-14.3 32-32 32zM704 320H320c-17.7 0-32-14.3-32-32s14.3-32 32-32h384c17.7 0 32 14.3 32 32s-14.3 32-32 32z"  horiz-adv-x="1024" />

    
    <glyph glyph-name="insert-horizontal-li" unicode="&#59894;" d="M976 432H48c-26.5 0-48-21.5-48-48s21.5-48 48-48h928c26.5 0 48 21.5 48 48s-21.5 48-48 48z"  horiz-adv-x="1024" />

    
    <glyph glyph-name="block" unicode="&#59895;" d="M244.4 546.9V665.6c0 38.5 28.7 70.8 66.9 75.5l60.2 7.3c24.1 2.9 41.3 24.8 38.4 49-2.9 24.1-24.8 41.3-49 38.4l-60.2-7.3c-82.4-9.9-144.4-79.8-144.4-162.8V547c0-36.7-20.9-70.2-53.9-86.3l-61.3-29.1c-5.6-2.6-9.1-8.3-9.1-14.5v-58.5c0-5.8 3.2-11.2 8.3-14l66.3-36.4c30.7-16.9 49.8-49.1 49.8-84.1v-121.7c0-83 62-152.9 144.4-162.8l60.2-7.3c24.1-2.9 46 14.3 49 38.4 2.9 24.1-14.3 46-38.4 49l-60.2 7.3c-38.2 4.6-66.9 37-66.9 75.5V223.9c0 67.2-36.6 129-95.8 161.5 58.7 32.1 95.7 94 95.7 161.5zM982.9 431.5l-61.3 29.1c-33 16.1-53.9 49.6-53.9 86.3V665.6c0 83-62 152.9-144.3 162.8l-60.1 7.3c-24.1 2.9-46-14.3-48.9-38.4-2.9-24.1 14.3-46 38.4-49l60.1-7.3c38.2-4.6 66.9-37 66.9-75.5v-118.7c0-67.5 36.9-129.3 95.7-161.5-59.2-32.5-95.7-94.3-95.7-161.5v-121.7c0-38.5-28.7-70.8-66.9-75.5l-60.1-7.3c-24.1-2.9-41.3-24.8-38.4-49 2.9-24.1 24.8-41.3 48.9-38.4l60.1 7.3c82.3 9.9 144.3 79.8 144.3 162.8V223.9c0 35 19.1 67.3 49.8 84.1l66.2 36.4c5.1 2.8 8.3 8.2 8.3 14V417c0 6.2-3.6 11.8-9.1 14.5z"  horiz-adv-x="1024" />

    
    <glyph glyph-name="video" unicode="&#59897;" d="M419 214.2L661 372c9.4 6.6 9.4 18.1 0 24.7l-242 157c-13.6 9.5-35 1.9-35-12.4v-314.8c0-14.2 21.5-21.8 35-12.3zM960 768H64c-35.3 0-64-28.7-64-64v-640c0-35.3 28.7-64 64-64h896c35.3 0 64 28.7 64 64V704c0 35.3-28.7 64-64 64zM168 88c0-8.8-7.2-16-16-16H80c-8.8 0-16 7.2-16 16v88c0 8.8 7.2 16 16 16h72c8.8 0 16-7.2 16-16v-88z m0 252c0-8.8-7.2-16-16-16H80c-8.8 0-16 7.2-16 16v88c0 8.8 7.2 16 16 16h72c8.8 0 16-7.2 16-16v-88z m0 252c0-8.8-7.2-16-16-16H80c-8.8 0-16 7.2-16 16v88c0 8.8 7.2 16 16 16h72c8.8 0 16-7.2 16-16v-88z m624-520H232V696h560v-624z m168 16c0-8.8-7.2-16-16-16h-72c-8.8 0-16 7.2-16 16v88c0 8.8 7.2 16 16 16h72c8.8 0 16-7.2 16-16v-88z m0 252c0-8.8-7.2-16-16-16h-72c-8.8 0-16 7.2-16 16v88c0 8.8 7.2 16 16 16h72c8.8 0 16-7.2 16-16v-88z m0 252c0-8.8-7.2-16-16-16h-72c-8.8 0-16 7.2-16 16v88c0 8.8 7.2 16 16 16h72c8.8 0 16-7.2 16-16v-88z"  horiz-adv-x="1024" />

    
    <glyph glyph-name="eyes" unicode="&#59898;" d="M1015 429c-78 187.9-287 313-503 313S87 616.9 9 429c-12-28.9-12-61.7 0-90.7 78-187.9 287-313 503-313s425 125.1 503 313c12 29 12 61.8 0 90.7zM512 169c-118.7 0-215 96.3-215 215s96.3 215 215 215 215-96.3 215-215-96.3-215-215-215zM512 384m-143 0a143 143 0 1 1 286 0 143 143 0 1 1-286 0Z"  horiz-adv-x="1024" />

    
    <glyph glyph-name="save" unicode="&#59899;" d="M938.9 597.1L725.1 810.9A71.983 71.983 0 0 1 674.2 832H128c-35.3 0-64-28.7-64-64v-768c0-35.3 28.7-64 64-64h768c35.3 0 64 28.7 64 64V546.2c0 19.1-7.6 37.4-21.1 50.9zM448 760h128v-228H448V760zM296 8V248h432v-240H296z m592 0h-88V248c0 39.8-32.2 72-72 72H296c-39.8 0-72-32.2-72-72v-240h-88V760h88v-248c0-35.3 28.7-64 64-64h320c35.3 0 64 28.7 64 64V760h2.2L888 546.2V8z"  horiz-adv-x="1024" />

    
    <glyph glyph-name="download" unicode="&#59900;" d="M488.5 111.7c6.7-6.7 15.6-10.1 24.5-10.1s17.7 3.4 24.5 10.1l155.9 155.9c13.5 13.5 13.5 35.4 0 48.9-6.5 6.5-15.2 10.1-24.4 10.1s-17.9-3.6-24.4-10.1l-96.9-96.9V797.4c0 19.1-15.5 34.6-34.6 34.6s-34.6-15.5-34.6-34.6v-577.8l-96.9 96.9c-13.5 13.5-35.4 13.5-48.8 0-13.5-13.5-13.5-35.4-0.1-48.9l155.8-155.9zM925.4 255.6c-19.1 0-34.6-15.5-34.6-34.6v-195.4c0-11.3-9.2-20.6-20.6-20.6H153.7c-11.3 0-20.6 9.2-20.6 20.6V221.1c0 19.1-15.5 34.6-34.6 34.6S64 240.1 64 221.1v-222.9c0-34.3 27.9-62.1 62.1-62.1h771.8c34.3 0 62.1 27.9 62.1 62.1V221.1c0 19-15.5 34.5-34.6 34.5z"  horiz-adv-x="1024" />

    
    <glyph glyph-name="eyes-o" unicode="&#59901;" d="M1015 429l-0.5 1.2c-19 45.4-46.1 88-80.5 126.7-33.5 37.7-73.3 70.9-118.1 98.6-44.6 27.6-93.1 49-144.1 63.7C619.5 734.4 565.7 742 512 742c-53.7 0-107.5-7.6-159.8-22.7-51-14.7-99.5-36.1-144.1-63.7-44.8-27.7-84.6-60.9-118.1-98.6-34.7-39.1-62-82.1-81-128-12-28.8-12-61.9 0-90.7 19-45.8 46.3-88.9 81-127.9 33.5-37.7 73.3-70.9 118.1-98.6 44.6-27.6 93.1-49 144.1-63.7 52.3-15.1 106-22.7 159.8-22.7 53.7 0 107.5 7.6 159.8 22.7 51 14.7 99.5 36.1 144.1 63.7 44.8 27.7 84.6 60.9 118.1 98.6 34.7 39.1 62 82.1 81 127.9 11.9 28.9 11.9 61.9 0 90.7z m-66.5-63c-15.9-38.4-38.9-74.7-68.3-107.7-28.9-32.5-63.3-61.2-102.2-85.2-39-24.1-81.5-42.9-126.2-55.8C606 104.1 559 97.4 512 97.4c-47 0-94 6.7-139.8 19.9C327.5 130.2 285 148.9 246 173c-38.9 24-73.3 52.7-102.1 85.2-29.4 33.1-52.4 69.3-68.3 107.7-4.7 11.3-4.7 24.2 0 35.5 15.9 38.4 38.9 74.7 68.3 107.7 28.9 32.5 63.3 61.2 102.1 85.2 39 24.1 81.5 42.9 126.2 55.8C418 663.3 465 670 512 670s94-6.7 139.8-19.9c44.7-12.9 87.2-31.7 126.2-55.8 38.9-24 73.3-52.7 102.1-85.2 29.4-33.1 52.4-69.3 68.3-107.7l0.1-0.2c4.7-11.2 4.6-24 0-35.2zM512 599c-118.7 0-215-96.3-215-215s96.3-215 215-215 215 96.3 215 215-96.3 215-215 215z m0-358c-79 0-143 64-143 143s64 143 143 143 143-64 143-143-64-143-143-143z"  horiz-adv-x="1024" />

    
    <glyph glyph-name="pdf" unicode="&#59902;" d="M700.8 478.3c-1.7 3.9-6.6 5.3-9-0.7-4.7-19.8-1.2-40.8 7-59.5 7 19.8 3.7 56.3 2 60.2zM669.2 226.8c26.6 9.9 59.9 19.8 85.6 25.7-17.5 17.5-34.3 38.1-47.1 57.9-7-17.9-19.9-45.8-38.5-83.6zM545 128.9l4.8 1.3c16.3 5.8 27.8 17.3 37.1 32.5-17.5-7-31.4-18.6-41.9-33.8zM867.2 248c-23.3 0-22.8-1.3-30.9-2.5 11.7-5.8 22.5-8.2 34.1-9.3 9.3-1 22.5 0.3 24.1 2.3 1.7 2-4 9.5-27.3 9.5zM764-56H104V569h220c19.9 0 36 16.1 36 36V824h368v-148c0-19.9 16.1-36 36-36s36 16.1 36 36V824c0 39.8-32.2 72-72 72H317.8c-19.1 0-37.4-7.6-50.9-21.1L53.1 661.1A71.983 71.983 0 0 1 32 610.2V-56c0-39.8 32.2-72 72-72h660c19.9 0 36 16.1 36 36s-16.1 36-36 36zM288 794.2V641H134.8L288 794.2zM931.6 576H508.4c-33.4 0-60.4-27.1-60.4-60.4v-423.1c0-33.4 27.1-60.4 60.4-60.4h423.1c33.4 0 60.4 27.1 60.4 60.4V515.6c0.1 33.3-27 60.4-60.3 60.4z m1-335.3c0-24.8-14-37.3-37.4-41.1-7.1-1.2-13-1.4-23.9-1.4-32.5 2.4-62.8 14.3-87.1 34.7-44.5-9.9-88.6-24.1-135.8-43.4-36.3-64.1-70.6-97.4-101.2-97.4-7.3 0-14.2 1.6-19 5.1-13.2 6.2-21.3 19.6-21.3 34.1 0 4.4 0.5 8 2.3 12.5 2.4 6.1 6.7 12.5 13.6 19.4 17.1 17.3 48.6 36.5 98 57.9 24.1 44 43.9 90.5 60.7 142-10.1 20.3-18.9 41.9-24.4 62.7-8 29.8-8.2 54.1 1.8 70.8 7.5 13.7 22.5 21.4 38.9 20.2 12.6 0 25.1-6.3 32.6-16.4 16.1-22.2 14.4-67.7-5-132 18.1-33.7 41.7-64.2 70-90.4 28 5.3 50.6 7.9 72.6 7.9 25.7-0.5 43.4-6.4 53.9-16.6 8.2-8.1 11.5-18.3 10.7-28.6z"  horiz-adv-x="1024" />

    
    <glyph glyph-name="subscript" unicode="&#59903;" d="M456.4 541.1l202.1 202.1c20.3 20.3 20.3 53.2 0 73.5-20.3 20.3-53.2 20.3-73.5 0L382.9 614.6 180.8 816.8c-20.3 20.3-53.2 20.3-73.5 0-20.3-20.3-20.3-53.2 0-73.5l202.1-202.1L87.2 319c-20.3-20.3-20.3-53.2 0-73.5 20.3-20.3 53.2-20.3 73.5 0l222.1 222.1L605 245.4c20.3-20.3 53.2-20.3 73.5 0 20.3 20.3 20.3 53.2 0 73.5L456.4 541.1zM842.5 6.8c5.8 6.7 12.1 12.8 19 18.2 10.6 8.4 21.4 16.2 32.6 23.6 11.4 7.4 22.7 14.9 33.9 22.5 11.6 7.8 21.9 16.6 31.1 26.2 9.3 9.8 16.8 21.1 22.5 33.8 5.8 12.9 8.6 28.1 8.6 45.7 0 17-3.3 32.5-9.8 46.3-6.5 13.8-15.4 25.4-26.5 34.8-11 9.4-23.8 16.6-38.3 21.5-14.4 5-29.5 7.5-45.4 7.5-20.7 0-39.2-3.6-55.4-10.7-16.2-7.2-29.7-17.3-40.4-30.2-10.6-12.8-18.6-27.8-23.9-44.8-5.3-17-7.6-35.3-6.9-54.9l0.2-6.3h77.1v6.5c0 8.4 0.8 16.9 2.5 25.5 1.6 8.3 4.3 15.9 8.1 22.7 3.6 6.5 8.3 11.7 14.3 15.7 5.6 3.8 12.6 5.7 21.2 5.7 12.9 0 23.1-3.9 31.2-11.7 7.9-7.7 12-18.5 12-33 0-9-2-16.9-6-23.7-4.2-7.3-9.5-13.9-15.8-19.8-6.5-6-13.6-11.6-21.5-16.5-8.3-5.3-16.1-10.4-23.4-15.5-14.2-9.8-27.8-19.5-40.6-29-13.2-9.8-24.6-20.4-34.4-32-9.9-11.8-17.8-25.1-23.5-39.9-5.8-15-8.7-32.5-8.7-52.5v-6.5h256v70.8H842.5z"  horiz-adv-x="1024" />

    
    <glyph glyph-name="superscript" unicode="&#59904;" d="M842.5 518.8c5.8 6.7 12.1 12.8 19 18.2 10.6 8.4 21.4 16.2 32.6 23.6 11.4 7.4 22.7 14.9 33.9 22.5 11.6 7.8 21.9 16.6 31.1 26.2 9.3 9.8 16.8 21.1 22.5 33.8 5.8 12.9 8.6 28.1 8.6 45.7 0 17-3.3 32.5-9.8 46.3-6.5 13.8-15.4 25.4-26.5 34.8-11 9.4-23.8 16.6-38.3 21.5-14.4 5-29.5 7.5-45.4 7.5-20.7 0-39.2-3.6-55.4-10.7-16.2-7.2-29.7-17.3-40.4-30.2-10.6-12.8-18.6-27.8-23.9-44.8-5.3-17-7.6-35.3-6.9-54.9l0.2-6.3h77.1v6.5c0 8.4 0.8 16.9 2.5 25.5 1.6 8.3 4.3 15.9 8.1 22.7 3.6 6.5 8.3 11.7 14.3 15.7 5.6 3.8 12.6 5.7 21.2 5.7 12.9 0 23.1-3.9 31.2-11.7 7.9-7.7 12-18.5 12-33 0-9-2-16.9-6-23.7-4.2-7.3-9.5-13.9-15.8-19.8-6.5-6-13.6-11.6-21.5-16.5-8.3-5.3-16.1-10.4-23.4-15.5-14.2-9.8-27.8-19.5-40.6-29-13.2-9.8-24.6-20.4-34.4-32-9.9-11.8-17.8-25.1-23.5-39.9-5.8-15-8.7-32.5-8.7-52.5v-6.5h256v70.8H842.5zM456.5 250l202.1 202.1c20.3 20.3 20.3 53.2 0 73.5s-53.2 20.3-73.5 0L383 323.5 180.9 525.7c-20.3 20.3-53.2 20.3-73.5 0s-20.3-53.2 0-73.5L309.5 250 87.3 27.9c-20.3-20.3-20.3-53.2 0-73.5s53.2-20.3 73.5 0L383 176.5l222.1-222.1c20.3-20.3 53.2-20.3 73.5 0s20.3 53.2 0 73.5L456.5 250z"  horiz-adv-x="1024" />

    
    <glyph glyph-name="riddle" unicode="&#59905;" d="M955.7-8.9L784 288.5c92.1 48 155 144.4 155 255.5 0 159.1-128.9 288-288 288-2.7 0-5.4 0-8.1-0.1-1 0.1-1.9 0.1-2.9 0.1H256c-19.9 0-36-16.1-36-36v-92H100c-19.9 0-36-16.1-36-36v-696c0-19.9 16.1-36 36-36h824c14.4 0 26.7 8.4 32.5 20.6 5.4 10.5 5.6 23.5-0.8 34.5zM620 632c59.6 0 108-48.4 108-108s-48.4-108-108-108H484c-19.9 0-36-16.1-36-36 0-6.7 1.8-12.9 5-18.2 0.3-0.7 0.7-1.3 1-1.9L583.2 136H292V632h271.1c7.4-0.2 46.2 0 56.9 0zM256 64h388c0.7 0 1.5 0 2.2 0.1 5.9 0.1 11.9 1.7 17.4 4.8 17.2 9.9 23.1 32 13.2 49.2L546.3 344H620c99.4 0 180 80.6 180 180s-80.6 180-180 180c-3.7 0-7.4-0.1-11.1-0.3-1.6 0.2-3.2 0.3-4.9 0.3H292v56h348c0.6 0 1.3 0 1.9 0.1 3.4 0 6.4-0.1 9.1-0.1 119.3 0 216-96.7 216-216 0-88.9-54.3-167.7-135.2-200.4-5.7-2.2-10.5-4.3-14.3-6.4-0.8-0.4-1.6-0.8-2.4-1.3-17.2-9.9-23.1-32-13.2-49.2L862.8 8H136V632h84v-532c0-19.9 16.1-36 36-36z"  horiz-adv-x="1024" />

    
    <glyph glyph-name="more" unicode="&#59906;" d="M74 384m-74 0a74 74 0 1 1 148 0 74 74 0 1 1-148 0ZM950 384m-74 0a74 74 0 1 1 148 0 74 74 0 1 1-148 0ZM512 384m-74 0a74 74 0 1 1 148 0 74 74 0 1 1-148 0Z"  horiz-adv-x="1024" />

    
    <glyph glyph-name="table-split" unicode="&#59907;" d="M472 444h80v-80h-80zM616 300h80v-80h-80zM760 300h80v-80h-80zM472 300h80v-80h-80zM888 832H136c-39.8 0-72-32.2-72-72v-752c0-39.8 32.2-72 72-72h752c39.8 0 72 32.2 72 72V760c0 39.8-32.2 72-72 72z m-752-72h340v-176H136V760z m752-752H136V512h752v-504z m0 576H548V760h340v-176zM472 156h80v-80h-80zM184 300h80v-80h-80zM328 300h80v-80h-80z"  horiz-adv-x="1024" />

    
    <glyph glyph-name="emoji" unicode="&#59908;" d="M738 317.1c-18.3 7.8-39.4-0.8-47.2-19.1-37.5-88.5-95.4-130-178.9-130S370.5 209.6 333 298c-7.8 18.3-28.9 26.9-47.2 19.1-18.3-7.8-26.9-28.9-19.1-47.2C315.2 155.8 398.6 96 512 96s196.8 59.8 245.1 174c7.8 18.3-0.8 39.4-19.1 47.1zM512 896C229.2 896 0 666.8 0 384s229.2-512 512-512 512 229.2 512 512S794.8 896 512 896z m0-952C269-56 72 141 72 384S269 824 512 824s440-197 440-440-197-440-440-440zM336 560m-80 0a80 80 0 1 1 160 0 80 80 0 1 1-160 0ZM688 560m-80 0a80 80 0 1 1 160 0 80 80 0 1 1-160 0Z"  horiz-adv-x="1024" />

    
    <glyph glyph-name="table-merge" unicode="&#59909;" d="M888 832H136c-39.8 0-72-32.2-72-72v-752c0-39.8 32.2-72 72-72h752c39.8 0 72 32.2 72 72V760c0 39.8-32.2 72-72 72z m-752-72h340v-202.7H136V760z m340-752H136V210.7h340V8z m412 0H548V210.7h340V8z m0 274.7H136V485.3h752v-202.6z m0 274.6H548V760h340v-202.7z"  horiz-adv-x="1024" />

    
    <glyph glyph-name="math" unicode="&#59910;" d="M912 640c26.5 0 48 21.5 48 48v96c0 26.5-21.5 48-48 48H112c-23 0-42.1-16.1-46.9-37.7-4.4-17.3 1-36.5 15.6-48.7l356.5-299.1L81.9 22.9c-1.3-1.5-2.4-3.1-3.4-4.7-9-8.6-14.5-20.8-14.5-34.2 0-26.5 21.5-48 48-48h800c26.5 0 48 21.5 48 48v96c0 26.5-21.5 48-48 48s-48-21.5-48-48v-48H214.8l326.9 389.6c17 20.3 14.4 50.6-5.9 67.6-0.5 0.4-1.1 0.9-1.6 1.3l-0.2 0.2L241.6 736H864v-48c0-26.5 21.5-48 48-48z"  horiz-adv-x="1024" />

    
    <glyph glyph-name="hotkey" unicode="&#59911;" d="M960 704H64c-35.3 0-64-28.7-64-64v-512c0-35.3 28.7-64 64-64h896c35.3 0 64 28.7 64 64V640c0 35.3-28.7 64-64 64z m-8-568H72V632h880v-496zM616 360c0-6.6 5.4-12 12-12h48c6.6 0 12 5.4 12 12v48c0 6.6-5.4 12-12 12h-48c-6.6 0-12-5.4-12-12v-48zM697 496h48c6.6 0 12 5.4 12 12v48c0 6.6-5.4 12-12 12h-48c-6.6 0-12-5.4-12-12v-48c0-6.6 5.4-12 12-12zM558 496h48c6.6 0 12 5.4 12 12v48c0 6.6-5.4 12-12 12h-48c-6.6 0-12-5.4-12-12v-48c0-6.6 5.4-12 12-12zM748 408v-48c0-6.6 5.4-12 12-12h124c6.6 0 12 5.4 12 12V556c0 6.6-5.4 12-12 12h-48c-6.6 0-12-5.4-12-12v-136h-64c-6.6 0-12-5.4-12-12zM738 272H287c-6.6 0-12-5.4-12-12v-48c0-6.6 5.4-12 12-12h451c6.6 0 12 5.4 12 12v48c0 6.6-5.4 12-12 12zM884 272h-48c-6.6 0-12-5.4-12-12v-48c0-6.6 5.4-12 12-12h48c6.6 0 12 5.4 12 12v48c0 6.6-5.4 12-12 12zM418 496h48c6.6 0 12 5.4 12 12v48c0 6.6-5.4 12-12 12h-48c-6.6 0-12-5.4-12-12v-48c0-6.6 5.4-12 12-12zM476 360c0-6.6 5.4-12 12-12h48c6.6 0 12 5.4 12 12v48c0 6.6-5.4 12-12 12h-48c-6.6 0-12-5.4-12-12v-48zM140 348h124c6.6 0 12 5.4 12 12v48c0 6.6-5.4 12-12 12H140c-6.6 0-12-5.4-12-12v-48c0-6.6 5.4-12 12-12zM140 200h48c6.6 0 12 5.4 12 12v48c0 6.6-5.4 12-12 12h-48c-6.6 0-12-5.4-12-12v-48c0-6.6 5.4-12 12-12zM140 496h48c6.6 0 12 5.4 12 12v48c0 6.6-5.4 12-12 12h-48c-6.6 0-12-5.4-12-12v-48c0-6.6 5.4-12 12-12zM336 360c0-6.6 5.4-12 12-12h48c6.6 0 12 5.4 12 12v48c0 6.6-5.4 12-12 12h-48c-6.6 0-12-5.4-12-12v-48zM279 496h48c6.6 0 12 5.4 12 12v48c0 6.6-5.4 12-12 12h-48c-6.6 0-12-5.4-12-12v-48c0-6.6 5.4-12 12-12z"  horiz-adv-x="1024" />

    
    <glyph glyph-name="collapse-table" unicode="&#59916;" d="M756.853 561.26l93.52-93.52c12.496-12.497 12.496-32.759 0-45.255a32 32 0 0 0-22.628-9.373H573c-17.673 0-32 14.327-32 32V699.857c0 17.673 14.327 32 32 32a32 32 0 0 0 22.627-9.372l93.344-93.344 188.8 188.8c18.745 18.745 49.137 18.745 67.882 0 18.745-18.745 18.745-49.137 0-67.882l-188.8-188.8zM266.859 206.852l-93.52 93.52c-12.497 12.496-12.497 32.758 0 45.254A32 32 0 0 0 195.966 355h254.746c17.673 0 32-14.327 32-32v-254.745c0-17.673-14.327-32-32-32a32 32 0 0 0-22.628 9.372l-93.343 93.344-188.8-188.8c-18.745-18.745-49.137-18.745-67.882 0-18.745 18.745-18.745 49.137 0 67.882l188.8 188.8z"  horiz-adv-x="1024" />

    
    <glyph glyph-name="expand-table" unicode="&#59917;" d="M743.859 683.853l-93.52 93.52c-12.497 12.496-12.497 32.758 0 45.254A32 32 0 0 0 672.966 832h254.746c17.673 0 32-14.327 32-32v-254.745c0-17.673-14.327-32-32-32a32 32 0 0 0-22.628 9.372l-93.343 93.344-188.8-188.8c-18.745-18.745-49.137-18.745-67.882 0-18.745 18.745-18.745 49.137 0 67.882l188.8 188.8zM279.853 83.784l93.52-93.52c12.496-12.496 12.496-32.757 0-45.254a32 32 0 0 0-22.628-9.373H96c-17.673 0-32 14.327-32 32V222.383c0 17.673 14.327 32 32 32a32 32 0 0 0 22.627-9.373l93.344-93.343 188.8 188.8c18.745 18.745 49.137 18.745 67.882 0 18.745-18.746 18.745-49.138 0-67.883l-188.8-188.8z"  horiz-adv-x="1024" />

    
    <glyph glyph-name="replace" unicode="&#59918;" d="M448 520V760c0 39.8-32.2 72-72 72H136c-39.8 0-72-32.2-72-72v-240c0-39.8 32.2-72 72-72h240c39.8 0 72 32.2 72 72zM136 760h240v-240H136V760z m199-596H215V312c0 19.9-16.1 36-36 36s-36-16.1-36-36v-184c0-9.9 4-18.9 10.5-25.5C160 96 169 92 179 92h156v-83l141 118.5L335 246v-82z m354 440h120v-148c0-19.9 16.1-36 36-36s36 16.1 36 36V640c0 9.9-4 18.9-10.5 25.5-6.6 6.5-15.6 10.5-25.5 10.5H689v83L548 640.5 689 522v82z m199-284H648c-39.8 0-72-32.2-72-72v-240c0-39.8 32.2-72 72-72h240c39.8 0 72 32.2 72 72V248c0 39.8-32.2 72-72 72z m0-312H648V248h240v-240z"  horiz-adv-x="1024" />

    
    <glyph glyph-name="markdown" unicode="&#59919;" d="M877.583 304.242V374.22c0 16.448-13.334 29.781-29.781 29.781s-29.78-13.333-29.78-29.78v-69.978H772.16a4.243 4.243 0 0 1-3.262-6.956l75.803-91.137a4.243 4.243 0 0 1 6.524 0l75.803 91.137a4.243 4.243 0 0 1-3.262 6.956h-46.184zM931.6 576c33.3 0 60.4-27.1 60.3-60.4v-423.1c0-33.3-27-60.4-60.4-60.4H508.4c-33.3 0-60.4 27-60.4 60.4V515.6c0 33.3 27 60.4 60.4 60.4h423.2zM638.913 218.81l38.912 97.152V204h52.597V404h-63.925l-45.222-114.492L575.923 404H512v-200h52.598V316l39.048-97.19h35.267zM764-56H104V569h220c19.9 0 36 16.1 36 36V824h368v-148c0-19.9 16.1-36 36-36s36 16.1 36 36V824c0 39.8-32.2 72-72 72H317.8c-19.1 0-37.4-7.6-50.9-21.1L53.1 661.1A71.983 71.983 0 0 1 32 610.2V-56c0-39.8 32.2-72 72-72h660c19.9 0 36 16.1 36 36s-16.1 36-36 36zM288 794.2V641H134.8L288 794.2z"  horiz-adv-x="1024" />

    
    <glyph glyph-name="backtolist" unicode="&#59920;" d="M240 108h352c26.51 0 48-21.49 48-48s-21.49-48-48-48H240c-26.51 0-48 21.49-48 48s21.49 48 48 48zM60 768c33.137 0 60-26.863 60-60s-26.863-60-60-60-60 26.863-60 60 26.863 60 60 60z m0-216c33.137 0 60-26.863 60-60s-26.863-60-60-60-60 26.863-60 60 26.863 60 60 60z m0-216c33.137 0 60-26.863 60-60s-26.863-60-60-60-60 26.863-60 60 26.863 60 60 60z m0-216c33.137 0 60-26.863 60-60s-26.863-60-60-60-60 26.863-60 60 26.863 60 60 60z m180 636h736c26.51 0 48-21.49 48-48s-21.49-48-48-48H240c-26.51 0-48 21.49-48 48s21.49 48 48 48z m0-216h736c26.51 0 48-21.49 48-48s-21.49-48-48-48H240c-26.51 0-48 21.49-48 48s21.49 48 48 48z m0-216h736c26.51 0 48-21.49 48-48s-21.49-48-48-48H240c-26.51 0-48 21.49-48 48s21.49 48 48 48z"  horiz-adv-x="1024" />

    
    <glyph glyph-name="plus" unicode="&#59921;" d="M464 432V784c0 26.51 21.49 48 48 48s48-21.49 48-48v-352h352c26.51 0 48-21.49 48-48s-21.49-48-48-48H560v-352c0-26.51-21.49-48-48-48s-48 21.49-48 48V336H112c-26.51 0-48 21.49-48 48s21.49 48 48 48h352z"  horiz-adv-x="1024" />

    
    <glyph glyph-name="colors1" unicode="&#59878;" d="M0 0h1024v-128H0zM813.4 158.89999999999998L591.3 775.8C579.8 808.6 548.6 832 512 832s-67.7-23.4-79.2-56.1c-0.1 0-74-204.8-221.7-614.3-2.2-7-4.1-14.3-4.1-22.1 0-29.5 24-53.5 53.5-53.5 26 0 44.5 21.1 52.5 43.2l64 189.1h268.1l63.8-188.7c8.5-25.8 26.9-44.6 53.6-44.6 30.1 0 54.5 24.4 54.5 54.5 0 6.8-1.3 13.4-3.6 19.4zM404.7 406.1l104.8 308.8h2.9l104.8-308.8H404.7z"  horiz-adv-x="1024" />

    
    <glyph glyph-name="bg-color2" unicode="&#59896;" d="M0 0h1024v-128H0zM828.7 537.1c8.9 15.3 3.7 34.9-11.5 43.8-273.9 159.5-410.9 239.3-411 239.3-30.6 17.7-69.8 7.2-87.4-23.4l-33-57.1-110.2 63.7c-23 13.3-52.3 5.4-65.6-17.6-13.3-23-5.4-52.3 17.6-65.6l110.3-63.7L75 374.4c-17.7-30.6-7.2-69.8 23.4-87.4l327.5-189c30.6-17.7 69.7-7.2 87.4 23.4l210.9 364.4 89.4 38c6.3 2.6 11.6 7.3 15.1 13.3z m-154.8 5.5L582.1 384H163.6l213.6 369.9L712 558.8l-38.1-16.2zM832.5 448S725 304.70000000000005 725 234.70000000000005C725 179 773.1 128 832.5 128S940 179 940 234.70000000000005c0 70-107.5 213.3-107.5 213.3z"  horiz-adv-x="1024" />

    
    <glyph glyph-name="H" unicode="&#59922;" d="M88 448h400V724c0 24.3 19.7 44 44 44s44-19.7 44-44v-680c0-24.3-19.7-44-44-44s-44 19.7-44 44V360H88v-316c0-24.3-19.7-44-44-44S0 19.7 0 44V724c0 24.3 19.7 44 44 44s44-19.7 44-44v-276zM1024.246 116.44h-63.298v-116.748h-75.957V116.44H674v79.472L884.991 492h75.957v-312.264h63.298v-63.296zM735.89 179.736h149.1V396.352h-1.406L735.89 179.736z"  horiz-adv-x="1024" />

    
    <glyph glyph-name="H1" unicode="&#59923;" d="M88 448h400V724c0 24.3 19.7 44 44 44s44-19.7 44-44v-680c0-24.3-19.7-44-44-44s-44 19.7-44 44V360H88v-316c0-24.3-19.7-44-44-44S0 19.7 0 44V724c0 24.3 19.7 44 44 44s44-19.7 44-44v-276zM704 427.154c17.697 0 34.902 1.463 51.616 4.389s31.83 7.802 45.349 14.628c13.518 6.827 25.07 15.604 34.656 26.332 9.586 10.728 15.854 23.893 18.803 39.497H923v-512h-92.172V361.326H704v65.828z"  horiz-adv-x="1024" />

    
    <glyph glyph-name="H2" unicode="&#59924;" d="M88 448h400V724c0 24.3 19.7 44 44 44s44-19.7 44-44v-680c0-24.3-19.7-44-44-44s-44 19.7-44 44V360H88v-316c0-24.3-19.7-44-44-44S0 19.7 0 44V724c0 24.3 19.7 44 44 44s44-19.7 44-44v-276zM815.551 298.198c13.128-0.47 26.257 0.469 39.385 2.813 13.129 2.344 24.85 6.447 35.165 12.308 10.316 5.86 18.638 13.948 24.968 24.263 6.33 10.315 9.494 22.975 9.494 37.978 0 21.1-7.15 37.978-21.45 50.638-14.301 12.66-32.704 18.989-55.21 18.989-14.066 0-26.257-2.813-36.572-8.44-10.315-5.626-18.872-13.245-25.67-22.857-6.799-9.612-11.84-20.395-15.121-32.352-3.283-11.956-4.69-24.263-4.22-36.923h-80.177c0.938 23.913 5.392 46.066 13.363 66.462 7.97 20.396 18.872 38.095 32.703 53.099 13.832 15.004 30.594 26.725 50.287 35.165C802.188 507.78 824.459 512 849.31 512c19.223 0 38.095-2.813 56.616-8.44 18.52-5.626 35.165-13.831 49.934-24.615 14.77-10.784 26.609-24.498 35.517-41.143 8.909-16.645 13.363-35.75 13.363-57.318 0-24.85-5.626-46.535-16.88-65.055-11.252-18.52-28.835-32-52.747-40.44v-1.407c28.132-5.626 50.052-19.575 65.759-41.846 15.707-22.27 23.56-49.348 23.56-81.23 0-23.444-4.688-44.425-14.065-62.946-9.378-18.52-22.037-34.227-37.979-47.12-15.942-12.894-34.462-22.858-55.561-29.89-21.1-7.034-43.37-10.55-66.814-10.55-28.601 0-53.568 4.103-74.902 12.308-21.334 8.205-39.15 19.81-53.451 34.813-14.3 15.004-25.202 33.055-32.704 54.154-7.502 21.099-11.487 44.542-11.956 70.33h80.177c-0.938-30.008 6.447-54.975 22.154-74.902s39.268-29.89 70.682-29.89c26.726 0 49.114 7.62 67.166 22.857 18.051 15.239 27.077 36.923 27.077 65.055 0 19.224-3.751 34.462-11.253 45.715-7.502 11.252-17.348 19.81-29.539 25.67-12.19 5.86-25.905 9.494-41.143 10.901-15.239 1.407-30.828 1.875-46.77 1.407v59.78z"  horiz-adv-x="1024" />

    
    <glyph glyph-name="H3" unicode="&#59925;" d="M88 448h400V724c0 24.3 19.7 44 44 44s44-19.7 44-44v-680c0-24.3-19.7-44-44-44s-44 19.7-44 44V360H88v-316c0-24.3-19.7-44-44-44S0 19.7 0 44V724c0 24.3 19.7 44 44 44s44-19.7 44-44v-276zM934.736 377.67c-1.875 20.162-9.02 36.454-21.438 48.88-12.417 12.424-29.169 18.637-50.255 18.637-14.526 0-27.06-2.696-37.603-8.088-10.544-5.392-19.446-12.542-26.71-21.45-7.262-8.91-13.12-19.107-17.571-30.594-4.452-11.487-8.083-23.56-10.895-36.22-2.811-12.66-4.803-25.201-5.974-37.626a4794.582 4794.582 0 0 1-3.163-34.813l1.406-1.407c10.777 19.692 25.654 34.344 44.632 43.956 18.978 9.612 39.478 14.418 61.501 14.418 24.366 0 46.155-4.22 65.367-12.66 19.212-8.44 35.495-20.044 48.85-34.813 13.354-14.77 23.545-32.234 30.574-52.395 7.029-20.162 10.543-41.964 10.543-65.407 0-23.912-3.866-46.066-11.597-66.462-7.732-20.395-18.86-38.212-33.387-53.45-14.526-15.238-31.863-27.077-52.012-35.517C906.855 4.22 884.598 0 860.232 0c-36.081 0-65.719 6.681-88.913 20.044-23.195 13.363-41.47 31.648-54.824 54.857-13.355 23.209-22.609 50.403-27.763 81.583-5.155 31.18-7.732 64.82-7.732 100.923 0 29.538 3.163 59.31 9.489 89.318 6.326 30.008 16.751 57.319 31.277 81.934 14.526 24.616 33.62 44.66 57.284 60.132C802.714 504.264 831.882 512 866.557 512c19.68 0 38.19-3.282 55.527-9.846 17.338-6.564 32.683-15.707 46.038-27.429 13.355-11.721 24.249-25.787 32.683-42.198 8.435-16.41 13.12-34.695 14.058-54.857h-80.127zM857.42 66.813c14.526 0 27.178 2.93 37.955 8.791 10.777 5.861 19.797 13.48 27.06 22.858 7.263 9.377 12.652 20.278 16.166 32.703 3.515 12.425 5.272 25.201 5.272 38.33 0 13.128-1.757 25.787-5.272 37.978-3.514 12.19-8.903 22.857-16.166 32-7.263 9.142-16.283 16.527-27.06 22.153-10.777 5.627-23.429 8.44-37.955 8.44s-27.295-2.696-38.306-8.088c-11.012-5.392-20.266-12.66-27.764-21.802-7.497-9.143-13.12-19.81-16.868-32-3.75-12.19-5.623-25.084-5.623-38.681 0-13.598 1.874-26.491 5.623-38.682 3.748-12.19 9.371-23.091 16.868-32.703 7.498-9.612 16.752-17.23 27.764-22.857 11.011-5.627 23.78-8.44 38.306-8.44z"  horiz-adv-x="1024" />

    
    <glyph glyph-name="H4" unicode="&#59926;" d="M742.89 502h254.597v-71.736H802.672l-25.32-125.187 1.407-1.407c10.784 12.19 24.499 21.45 41.144 27.78 16.645 6.33 33.172 9.495 49.583 9.495 24.381 0 46.183-4.102 65.407-12.308 19.224-8.205 35.4-19.692 48.528-34.461 13.129-14.77 23.092-32.235 29.89-52.396 6.8-20.161 10.198-41.963 10.198-65.406 0-19.693-3.164-39.971-9.494-60.836-6.33-20.864-16.41-39.853-30.242-56.967-13.832-17.113-31.532-31.179-53.1-42.197-21.568-11.019-47.355-16.528-77.363-16.528-23.913 0-46.067 3.165-66.463 9.495-20.396 6.33-38.33 15.824-53.802 28.483-15.473 12.66-27.78 28.25-36.924 46.77-9.143 18.52-14.183 40.204-15.121 65.054h80.177c2.344-26.725 11.487-47.238 27.429-61.538 15.941-14.3 37.04-21.45 63.297-21.45 16.88 0 31.18 2.812 42.902 8.439 11.721 5.626 21.216 13.362 28.484 23.209 7.267 9.846 12.425 21.333 15.472 34.461 3.048 13.129 4.572 27.194 4.572 42.198 0 13.597-1.876 26.608-5.627 39.033-3.75 12.425-9.377 23.326-16.879 32.703-7.502 9.378-17.231 16.88-29.187 22.506-11.956 5.626-25.905 8.44-41.847 8.44-16.88 0-32.703-3.165-47.473-9.495-14.77-6.33-25.436-18.169-32-35.517h-80.177L742.891 502zM88 448h400V724c0 24.3 19.7 44 44 44s44-19.7 44-44v-680c0-24.3-19.7-44-44-44s-44 19.7-44 44V360H88v-316c0-24.3-19.7-44-44-44S0 19.7 0 44V724c0 24.3 19.7 44 44 44s44-19.7 44-44v-276z"  horiz-adv-x="1024" />

    
    <glyph glyph-name="H5" unicode="&#59927;" d="M88 448h400V724c0 24.3 19.7 44 44 44s44-19.7 44-44v-680c0-24.3-19.7-44-44-44s-44 19.7-44 44V360H88v-316c0-24.3-19.7-44-44-44S0 19.7 0 44V724c0 24.3 19.7 44 44 44s44-19.7 44-44v-276z m935.282-448H680c0.479 41.591 10.533 77.923 30.163 108.997 19.63 31.074 46.44 58.084 80.434 81.031 16.279 11.952 33.275 23.544 50.99 34.779 17.714 11.234 33.993 23.305 48.835 36.213 14.842 12.907 27.05 26.89 36.626 41.95 9.576 15.058 14.603 32.388 15.081 51.988 0 9.083-1.077 18.764-3.231 29.042-2.155 10.278-6.344 19.84-12.568 28.683-6.224 8.845-14.842 16.254-25.854 22.23-11.012 5.976-25.375 8.964-43.09 8.964-16.278 0-29.803-3.227-40.576-9.68-10.772-6.455-19.39-15.299-25.854-26.533-6.463-11.235-11.251-24.5-14.363-39.798-3.112-15.298-4.908-31.791-5.386-49.48h-81.87c0 27.728 3.71 53.423 11.13 77.087 7.422 23.664 18.553 44.101 33.395 61.311 14.842 17.21 32.916 30.715 54.222 40.516 21.305 9.8 46.081 14.7 74.33 14.7 30.641 0 56.255-5.02 76.843-15.059 20.587-10.04 37.224-22.707 49.912-38.005 12.688-15.298 21.665-31.91 26.931-49.838 5.267-17.927 7.9-35.018 7.9-51.272 0-20.078-3.112-38.244-9.336-54.498-6.224-16.254-14.603-31.193-25.136-44.818-10.533-13.625-22.502-26.174-35.908-37.647a538.302 538.302 0 0 0-41.653-32.27 1122.27 1122.27 0 0 0-43.09-28.683c-14.364-9.083-27.65-18.166-39.858-27.249-12.209-9.083-22.862-18.525-31.958-28.325-9.097-9.8-15.321-20.198-18.673-31.193h244.894V0z"  horiz-adv-x="1024" />

    
    <glyph glyph-name="cancel-fullscreen" unicode="&#59928;" d="M765.864 581.495H908c22.091 0 40-17.909 40-40s-17.909-40-40-40H668c-22.091 0-40 17.909-40 40v240c0 22.091 17.909 40 40 40s40-17.909 40-40v-144.726L891.516 820.284c15.62 15.621 40.947 15.621 56.568 0 15.621-15.62 15.621-40.947 0-56.568l-182.22-182.221z m-507.927 0L75.716 763.715c-15.621 15.622-15.621 40.948 0 56.57 15.62 15.62 40.947 15.62 56.568 0L315.8 636.768V781.495c0 22.091 17.909 40 40 40s40-17.909 40-40v-240c0-22.091-17.909-40-40-40h-240c-22.091 0-40 17.909-40 40s17.909 40 40 40h142.137zM765.864 187l182.22-182.22c15.621-15.622 15.621-40.948 0-56.57-15.62-15.62-40.947-15.62-56.568 0L708 131.727V-13c0-22.091-17.909-40-40-40s-40 17.909-40 40V227c0 22.091 17.909 40 40 40h240c22.091 0 40-17.909 40-40s-17.909-40-40-40H765.864z m-507.927 0H115.8c-22.091 0-40 17.909-40 40s17.909 40 40 40h240c22.091 0 40-17.909 40-40v-240c0-22.091-17.909-40-40-40s-40 17.909-40 40V131.726L132.284-51.789c-15.62-15.621-40.947-15.621-56.568 0-15.621 15.62-15.621 40.947 0 56.568L257.936 187z"  horiz-adv-x="1024" />

    
    <glyph glyph-name="full-screen" unicode="&#59929;" d="M821.937 16.495l-182.221 182.22c-15.621 15.622-15.621 40.948 0 56.57 15.62 15.62 40.947 15.62 56.568 0L879.8 71.768V216.495c0 22.091 17.909 40 40 40s40-17.909 40-40v-240c0-22.091-17.909-40-40-40h-240c-22.091 0-40 17.909-40 40s17.909 40 40 40h142.137z m-620.073 0H344c22.091 0 40-17.909 40-40s-17.909-40-40-40H104c-22.091 0-40 17.909-40 40v240c0 22.091 17.909 40 40 40s40-17.909 40-40v-144.726l183.516 183.515c15.62 15.621 40.947 15.621 56.568 0 15.621-15.62 15.621-40.947 0-56.568l-182.22-182.221zM821.937 752H679.8c-22.091 0-40 17.909-40 40s17.909 40 40 40h240c22.091 0 40-17.909 40-40v-240c0-22.091-17.909-40-40-40s-40 17.909-40 40V696.726L696.284 513.211c-15.62-15.621-40.947-15.621-56.568 0-15.621 15.62-15.621 40.947 0 56.568L821.936 752z m-620.073 0l182.22-182.22c15.621-15.622 15.621-40.948 0-56.57-15.62-15.62-40.947-15.62-56.568 0L144 696.727V552c0-22.091-17.909-40-40-40s-40 17.909-40 40V792c0 22.091 17.909 40 40 40h240c22.091 0 40-17.909 40-40s-17.909-40-40-40H201.864z"  horiz-adv-x="1024" />

    
    <glyph glyph-name="arrow-down" unicode="&#59930;" d="M512.09 255.546l357.394 357.395c18.745 18.745 49.137 18.745 67.882 0 18.746-18.745 18.746-49.137 0-67.882L547.043 154.736a47.794 47.794 0 0 0-28.196-13.716c-14.653-2.313-30.173 2.176-41.465 13.469L87.059 544.812c-18.745 18.745-18.745 49.137 0 67.882 18.745 18.745 49.137 18.745 67.882 0L512.09 255.546z"  horiz-adv-x="1024" />

    
    <glyph glyph-name="arrow-up" unicode="&#59931;" d="M512.09 511.454l357.394-357.395c18.745-18.745 49.137-18.745 67.882 0 18.746 18.745 18.746 49.137 0 67.882L547.043 612.264a47.794 47.794 0 0 1-28.196 13.716c-14.653 2.313-30.173-2.176-41.465-13.469L87.059 222.188c-18.745-18.745-18.745-49.137 0-67.882 18.745-18.745 49.137-18.745 67.882 0L512.09 511.454z"  horiz-adv-x="1024" />

    
    <glyph glyph-name="VisualEditor" unicode="&#59932;" d="M192 704v-640h640V704H192z m704-640h64v-128H832v64H192v-64H64V64h64V704H64V832h128v-64h640V832h128v-128h-64v-640zM556 488v-284c0-24.3-19.7-44-44-44s-44 19.7-44 44V488H332c-24.3 0-44 19.7-44 44s19.7 44 44 44h360c24.3 0 44-19.7 44-44s-19.7-44-44-44H556z"  horiz-adv-x="1024" />

    
    <glyph glyph-name="sidebar" unicode="&#59933;" d="M136 760v-752h752V760H136z m-8 72h768c35.346 0 64-28.654 64-64v-768c0-35.346-28.654-64-64-64H128c-35.346 0-64 28.654-64 64V768c0 35.346 28.654 64 64 64zM356 540v-568h-72V540H113v72h799v-72H356z"  horiz-adv-x="1024" />

    
    <glyph glyph-name="arrow-right" unicode="&#59934;" d="M639.454 383.90999999999997l-357.395-357.394c-18.745-18.745-18.745-49.137 0-67.882 18.745-18.746 49.137-18.746 67.882 0L740.264 348.957a47.794 47.794 0 0 1 13.716 28.196c2.313 14.653-2.176 30.17299999-13.469 41.46500001L350.188 808.941c-18.745 18.745-49.137 18.745-67.882 0-18.745-18.745-18.745-49.137 0-67.882L639.454 383.90999999999997z"  horiz-adv-x="1024" />

    
    <glyph glyph-name="arrow-left-copy" unicode="&#59935;" d="M384.546 384.09l357.395 357.394c18.745 18.745 18.745 49.137 0 67.882-18.745 18.746-49.137 18.746-67.882 0L283.736 419.043a47.794 47.794 0 0 1-13.716-28.196c-2.313-14.653 2.176-30.17299999 13.469-41.46500001L673.812-40.94100000000003c18.745-18.745 49.137-18.745 67.882 0 18.745 18.745 18.745 49.137 0 67.882L384.546 384.09z"  horiz-adv-x="1024" />

    
    <glyph glyph-name="documentslist" unicode="&#59936;" d="M48 768h928c26.51 0 48-21.49 48-48s-21.49-48-48-48H48c-26.51 0-48 21.49-48 48s21.49 48 48 48z m0-224h928c26.51 0 48-21.49 48-48s-21.49-48-48-48H48c-26.51 0-48 21.49-48 48s21.49 48 48 48z m0-224h928c26.51 0 48-21.49 48-48s-21.49-48-48-48H48c-26.51 0-48 21.49-48 48s21.49 48 48 48z m0-224h544c26.51 0 48-21.49 48-48s-21.49-48-48-48H48c-26.51 0-48 21.49-48 48s21.49 48 48 48z"  horiz-adv-x="1024" />

    
    <glyph glyph-name="tree" unicode="&#59938;" d="M704 168c-66.4 0-122.6-43.8-141.4-104H384c-11 0-20 9-20 20V384h198.7c18.7-60.3 74.9-104 141.3-104 81.7 0 148 66.3 148 148s-66.3 148-148 148c-66.4 0-122.6-43.7-141.3-104H364V606.7c60.3 18.7 104 74.9 104 141.3C468 829.7 401.7 896 320 896S172 829.7 172 748c0-66.4 43.7-122.6 104-141.3V84c0-59.6 48.4-108 108-108h178.7c18.7-60.2 74.9-104 141.3-104 81.7 0 148 66.3 148 148s-66.3 148-148 148z m0 320c33.1 0 60-26.9 60-60s-26.9-60-60-60-60 26.9-60 60 26.9 60 60 60zM320 808c33.1 0 60-26.9 60-60s-26.9-60-60-60-60 26.9-60 60 26.9 60 60 60z m384-848c-33.1 0-60 26.9-60 60s26.9 60 60 60 60-26.9 60-60-26.9-60-60-60z"  horiz-adv-x="1024" />

    
    <glyph glyph-name="feedback" unicode="&#59940;" d="M896 832H128c-35.3 0-64-28.7-64-64v-576c0-35.3 28.7-64 64-64h64v-151.894c0-17.673 14.327-32 32-32a32 32 0 0 1 20.965 7.825L448 128h448c35.3 0 64 28.7 64 64V768c0 35.3-28.7 64-64 64z m-8-632H421.1L264 63.7V200H136V760h752v-560zM288 544h448c17.7 0 32 14.3 32 32s-14.3 32-32 32H288c-17.7 0-32-14.3-32-32s14.3-32 32-32zM288 352h256c17.7 0 32 14.3 32 32s-14.3 32-32 32H288c-17.7 0-32-14.3-32-32s14.3-32 32-32z"  horiz-adv-x="1024" />

    
    <glyph glyph-name="overflow" unicode="&#59937;" d="M40 768c-22.1 0-40-17.9-40-40v-688c0-22.1 17.9-40 40-40s40 17.9 40 40V728c0 22.1-17.9 40-40 40zM676 732c0 19.9-16.1 36-36 36s-36-16.1-36-36v-236h72V732zM604 36c0-19.9 16.1-36 36-36s36 16.1 36 36V272h-72v-236zM1019.7 396.5c-0.5 0.6-1.1 1.2-1.7 1.7L854 542.8c-5.2 4.6-13.2 4.1-17.8-1.1-2-2.3-3.2-5.3-3.2-8.4V424H232c-22.1 0-40-17.9-40-40s17.9-40 40-40h601v-109.5c0-7 5.7-12.6 12.6-12.6 3.1 0 6.1 1.1 8.4 3.2l164.1 144.7c7.8 6.8 8.6 18.8 1.6 26.7z"  horiz-adv-x="1024" />

    
    <glyph glyph-name="align-bottom" unicode="&#59939;" d="M856 896H168c-22.1 0-40-17.9-40-40s17.9-40 40-40h688c22.1 0 40 17.9 40 40S878.1 896 856 896zM526 633.1c-6.9 7.9-18.9 8.6-26.8 1.7-0.6-0.5-1.2-1.1-1.7-1.7L352.9 469c-4.6-5.2-4.1-13.2 1.1-17.8 2.3-2 5.3-3.2 8.4-3.2H472v-536c0-22.1 17.9-40 40-40s40 17.9 40 40V448h109.2c7 0 12.6 5.7 12.6 12.6 0 3.1-1.1 6.1-3.2 8.4L526 633.1z"  horiz-adv-x="1024" />

    
    <glyph glyph-name="align-middle" unicode="&#59941;" d="M497.80693 519.084041c0.499756-0.599707 1.099463-1.199414 1.699171-1.69917 7.896144-6.896633 19.790337-6.196974 26.78692 1.69917L670.922401 683.103953c1.999024 2.298878 3.198438 5.297413 3.198438 8.395901 0 6.996584-5.697218 12.593851-12.59385 12.59385H552.180381V856.019522c0 22.089214-17.891264 39.980478-39.980479 39.980478s-39.980478-17.891264-39.980478-39.980478v-151.925818H362.672914c-3.098487 0-6.097023-1.099463-8.395901-3.198438-5.197462-4.597755-5.697218-12.593851-1.099463-17.791313l144.62938-164.019912zM855.832113 424.230356H168.167887c-22.089214 0-39.980478-17.891264-39.980479-39.980478s17.891264-39.980478 39.980479-39.980478h687.664226c22.089214 0 39.980478 17.891264 39.980479 39.980478s-17.891264 39.980478-39.980479 39.980478zM526.293021 248.915959c-6.896633 7.896144-18.890776 8.595803-26.78692 1.69917-0.599707-0.499756-1.199414-1.099463-1.699171-1.69917L353.277501 84.896047c-4.597755-5.197462-4.097999-13.193558 1.099463-17.791313 2.298878-1.999024 5.297413-3.198438 8.395901-3.198438h109.54651v-151.925818c0-22.089214 17.891264-39.980478 39.980479-39.980478s39.980478 17.891264 39.980478 39.980478v151.925818h109.146706c6.996584 0 12.593851 5.697218 12.59385 12.59385 0 3.098487-1.099463 6.097023-3.198438 8.395901L526.293021 248.915959z"  horiz-adv-x="1024" />

    
    <glyph glyph-name="wrap" unicode="&#59942;" d="M40 768c-22.1 0-40-17.9-40-40v-688c0-22.1 17.9-40 40-40s40 17.9 40 40V728c0 22.1-17.9 40-40 40zM984 768c-22.1 0-40-17.9-40-40v-688c0-22.1 17.9-40 40-40s40 17.9 40 40V728c0 22.1-17.9 40-40 40zM555.5 721H232c-22.1 0-40-17.9-40-40s17.9-40 40-40h323.5C664 641 752 553 752 444.5S664 248 555.5 248H384V358.4c0 3.1-1.1 6.1-3.2 8.4-4.6 5.2-12.6 5.7-17.8 1.1L198.9 223.2c-0.6-0.5-1.2-1.1-1.7-1.7-6.9-7.9-6.2-19.8 1.7-26.8L363 50.1c2.3-2 5.3-3.2 8.4-3.2 7 0 12.6 5.7 12.6 12.6V168h171.5C708.2 168 832 291.8 832 444.5S708.2 721 555.5 721z"  horiz-adv-x="1024" />

    
    <glyph glyph-name="align-top" unicode="&#59943;" d="M856-48H168c-22.1 0-40-17.9-40-40s17.9-40 40-40h688c22.1 0 40 17.9 40 40s-17.9 40-40 40zM497.5 134.9c0.5-0.6 1.1-1.2 1.7-1.7 7.9-6.9 19.8-6.2 26.8 1.7L670.7 299c2 2.3 3.2 5.3 3.2 8.4 0 7-5.7 12.6-12.6 12.6H552V856c0 22.1-17.9 40-40 40s-40-17.9-40-40v-536H362.4c-3.1 0-6.1-1.1-8.4-3.2-5.2-4.6-5.7-12.6-1.1-17.8l144.6-164.1z"  horiz-adv-x="1024" />

    
    <glyph glyph-name="italic1" unicode="&#59872;" d="M428 832h424c24.3 0 44-19.7 44-44s-19.7-44-44-44H428c-24.3 0-44 19.7-44 44s19.7 44 44 44zM172 24h424c24.3 0 44-19.7 44-44s-19.7-44-44-44H172c-24.3 0-44 19.7-44 44s19.7 44 44 44zM592 768h96L432.177-64h-96z"  horiz-adv-x="1024" />

    
    <glyph glyph-name="sort-descending" unicode="&#59948;" d="M407.4 126H298V792c0 22.1-17.9 40-40 40s-40-17.9-40-40v-666H108.6c-3.1 0-6.1-1.1-8.4-3.2-5.2-4.6-5.7-12.6-1.1-17.8l144.7-164.1c0.5-0.6 1.1-1.2 1.7-1.7 7.9-6.9 19.8-6.2 26.8 1.7L416.9 105c2 2.3 3.2 5.3 3.2 8.4 0 6.9-5.7 12.6-12.7 12.6zM813 266.5c-9.1 26-33.6 43.5-61.1 43.5s-52.1-17.4-61.1-43.5L576-64h80.4l28.5 90.7h131.4l28.5-90.7H928L813 266.5zM701.7 85.3l48 153.2h1.8l48-153.2h-97.8zM636 457h230.6c17.9 0 32.4 14.5 32.4 32.4s-14.5 32.4-32.4 32.4H704.4v1.8l188 254.7c4.7 5.6 7.6 12.8 7.6 20.7 0 17.7-14.3 32-32 32H646.7c-17.8 0-32.3-14.4-32.3-32.3s14.4-32.3 32.3-32.3h153.5v-2.1L610 508.1l0.1-0.2c-3.8-5.3-6.1-11.8-6.1-18.8 0-17.8 14.3-32.1 32-32.1z"  horiz-adv-x="1024" />

    
    <glyph glyph-name="column-width" unicode="&#59949;" d="M992 832c-17.7 0-32-14.3-32-32v-832c0-17.7 14.3-32 32-32s32 14.3 32 32V800c0 17.7-14.3 32-32 32zM32 832C14.3 832 0 817.7 0 800v-832c0-17.7 14.3-32 32-32s32 14.3 32 32V800c0 17.7-14.3 32-32 32zM953.1 398.7L789 543.4c-5.2 4.6-13.2 4.1-17.8-1.1-2-2.3-3.2-5.3-3.2-8.4v-109.4H256V533.9c0 3.1-1.1 6.1-3.2 8.4-4.6 5.2-12.6 5.7-17.8 1.1L91.6 416.9c-2.1-1.5-4-3.2-5.8-5.1L71 398.7c-0.6-0.5-1.2-1.1-1.7-1.7-6.9-7.9-6.2-19.8 1.7-26.8l14.8-13.1c1.8-1.9 3.7-3.6 5.8-5.1L235 225.6c2.3-2 5.3-3.2 8.4-3.2 7 0 12.6 5.7 12.6 12.6V344.5h512v-109.4c0-7 5.7-12.6 12.6-12.6 3.1 0 6.1 1.1 8.4 3.2l164.1 144.7c7.9 6.9 8.6 18.9 1.7 26.8-0.6 0.4-1.1 1-1.7 1.5z"  horiz-adv-x="1024" />

    
    <glyph glyph-name="clean-row" unicode="&#59950;" d="M940-17L766.5 487c-0.8 2.3-1.8 4.4-2.9 6.4-6.1 11.1-18 18.6-31.5 18.6H548V796c0 19.9-16.1 36-36 36s-36-16.1-36-36v-284H292c-17.3 0-31.7-12.2-35.2-28.4L84.4-17c-6.5-18.8 3.5-39.3 22.3-45.8 6.4-2.2 13-2.5 19.1-1.2h772.7c6.2-1.3 12.7-1 19.1 1.2 18.9 6.5 28.9 27 22.4 45.8zM317.9 440h388.6l28.9-84H289l28.9 84zM708 8v86c0 19.9-16.1 36-36 36s-36-16.1-36-36v-86H389v86c0 19.9-16.1 36-36 36s-36-16.1-36-36v-86H169.2l95 276h496l95-276H708z"  horiz-adv-x="1024" />

    
    <glyph glyph-name="line-width" unicode="&#59951;" d="M96 832h832c17.7 0 32 14.3 32 32S945.7 896 928 896H96C78.3 896 64 881.7 64 864s14.3-32 32-32zM928-64H96c-17.7 0-32-14.3-32-32s14.3-32 32-32h832c17.7 0 32 14.3 32 32s-14.3 32-32 32zM660.9 640c7 0 12.6 5.7 12.6 12.6 0 3.1-1.1 6.1-3.2 8.4L525.8 825.1c-6.9 7.9-18.9 8.6-26.8 1.7-0.6-0.5-1.2-1.1-1.7-1.7L352.6 661c-4.6-5.2-4.1-13.2 1.1-17.8 2.3-2 5.3-3.2 8.4-3.2h109.4v-512H362.1c-3.1 0-6.1-1.1-8.4-3.2-5.2-4.6-5.7-12.6-1.1-17.8l126.5-143.4c1.5-2.1 3.2-4 5.1-5.8l13.1-14.8c0.5-0.6 1.1-1.2 1.7-1.7 7.9-6.9 19.8-6.2 26.8 1.7l13.1 14.8c1.9 1.8 3.6 3.7 5.1 5.8L670.4 107c2 2.3 3.2 5.3 3.2 8.4 0 7-5.7 12.6-12.6 12.6H551.5V640h109.4z"  horiz-adv-x="1024" />

    
    <glyph glyph-name="sort-ascending" unicode="&#59952;" d="M407.4 126H298V792c0 22.1-17.9 40-40 40s-40-17.9-40-40v-666H108.6c-3.1 0-6.1-1.1-8.4-3.2-5.2-4.6-5.7-12.6-1.1-17.8l144.7-164.1c0.5-0.6 1.1-1.2 1.7-1.7 7.9-6.9 19.8-6.2 26.8 1.7L416.9 105c2 2.3 3.2 5.3 3.2 8.4 0 6.9-5.7 12.6-12.7 12.6zM684.9 548.7h131.4l28.5-90.7H928L813 788.5c-9.1 26-33.6 43.5-61.1 43.5s-52.1-17.4-61.1-43.5L576 458h80.4l28.5 90.7z m64.8 211.8h1.8l48-153.2h-97.7l47.9 153.2zM889.4 257.3c4.7 5.6 7.6 12.8 7.6 20.7 0 17.7-14.3 32-32 32H643.7c-17.8 0-32.3-14.4-32.3-32.3s14.4-32.3 32.3-32.3h153.5v-2.1L607-12.9l0.1-0.2c-3.8-5.3-6.1-11.8-6.1-18.8 0-17.7 14.3-32 32-32h230.6c17.9 0 32.4 14.5 32.4 32.4s-14.5 32.4-32.4 32.4H701.4v1.8l188 254.6z"  horiz-adv-x="1024" />

    
    <glyph glyph-name="define-name" unicode="&#59953;" d="M955.75 725H322.65c-29.3 0-57.2-12.6-76.6-34.5l-226.7-256c-25.8-29.1-25.8-72.8 0-101.9l226.7-256c19.4-21.9 47.3-34.5 76.6-34.5h633.1c37.7 0 68.3 30.6 68.3 68.3V656.7c0 37.7-30.6 68.3-68.3 68.3zM952.05 116H320.65c-7.4 0-14.5 3.2-19.4 8.7L72.05 383.5l229.2 258.8c4.9 5.5 12 8.7 19.4 8.7H952.05v-535zM481.05 448h320c17.7 0 32 14.3 32 32s-14.3 32-32 32H481.05c-17.7 0-32-14.3-32-32s14.3-32 32-32zM481.05 256h320c17.7 0 32 14.3 32 32s-14.3 32-32 32H481.05c-17.7 0-32-14.3-32-32s14.3-32 32-32zM270.05 384m-52 0a52 52 0 1 1 104 0 52 52 0 1 1-104 0Z"  horiz-adv-x="1025" />

    
    <glyph glyph-name="delete-column" unicode="&#59954;" d="M136 796c0 19.9-16.1 36-36 36s-36-16.1-36-36v-284c0-35.3 28.7-64 64-64h216v72H136V796zM924 832c-19.9 0-36-16.1-36-36v-276H680v-72h216c35.3 0 64 28.7 64 64V796c0 19.9-16.1 36-36 36zM448 292h128c17.7 0 32 14.3 32 32V800c0 17.7-14.3 32-32 32H448c-17.7 0-32-14.3-32-32v-476c0-17.7 14.3-32 32-32zM647.5 217.5c-14 14-36.8 14-50.8 0L512 132.8l-84.7 84.7c-14 14-36.8 14-50.8 0s-14-36.8 0-50.8l84.7-84.7-84.7-84.7c-14-14-14-36.8 0-50.8s36.8-14 50.8 0l84.7 84.7 84.7-84.7c14-14 36.8-14 50.8 0s14 36.8 0 50.8L562.8 82l84.7 84.7c14 14 14 36.7 0 50.8z"  horiz-adv-x="1024" />

    
    <glyph glyph-name="formula" unicode="&#59955;" d="M384 200h-80.8c-6.9 0-13.4 2.9-17.9 8.1L72.9 448l212.3 239.9c4.6 5.1 11.1 8.1 17.9 8.1h585v-272.1c-0.1-1.3-0.2-2.6-0.2-3.9 0-19.9 16.1-36 36-36s36 16.1 36 36h0.1V704c0 35.3-28.6 64-63.9 64h-593c-27.4 0-53.6-11.8-71.8-32.3l-212.2-240c-24.1-27.3-24.1-68.2 0-95.5l212.3-239.9c18.2-20.6 44.3-32.3 71.8-32.3H384c19.9 0 36 16.1 36 36s-16.1 36-36 36zM209 448a48 48 0 1 1 96 0 48 48 0 1 1-96 0ZM992 320h-32c-10.7 0-20.2-5.3-26-13.3-3.3-3.9-7.6-9.7-12.9-17.4l-65.9-87.4h-4.4l-31.5 87.4c-8.9 20.5-21.7 30.7-38.3 30.7-1.4 0-2.8-0.1-4.2-0.2-1.2 0.1-2.5 0.2-3.8 0.2h-99.4l18.8 78c6.9 28.7 32.7 49 62.2 49H787c19.9 0 36 16.1 36 36s-16.1 36-36 36h-32.4c-62.8 0-117.5-43-132.2-104.1L599.5 320H517c-17.7 0-32-14.3-32-32s14.3-32 32-32h67.1l-44.4-184H475c-19.9 0-36-16.1-36-36s16.1-36 36-36h74.1c27.7 0 51.8 19 58.3 45.9L658.1 256h97.5L798 154.8 722 64h-27c-17.7 0-32-14.3-32-32s14.3-32 32-32h32c3.3 0 6.6 0.5 9.6 1.5 9.3 2.6 18.1 8.8 26.3 18.5l67.6 86.4h4.4l34.2-86.4c6.2-11.4 16.1-18 29.7-19.6 1.7-0.3 3.4-0.4 5.1-0.4h52c17.7 0 32 14.3 32 32s-14.3 32-32 32h-30.8l-38.5 90 85.8 102H992c17.7 0 32 14.3 32 32s-14.3 32-32 32z"  horiz-adv-x="1024" />

    
    <glyph glyph-name="delete-row" unicode="&#59956;" d="M100 760h276v-208h72V768c0 35.3-28.7 64-64 64H100c-19.9 0-36-16.1-36-36s16.1-36 36-36zM376 8H100c-19.9 0-36-16.1-36-36s16.1-36 36-36h284c35.3 0 64 28.7 64 64V216h-72v-208zM572 480H96c-17.7 0-32-14.3-32-32v-128c0-17.7 14.3-32 32-32h476c17.7 0 32 14.3 32 32V448c0 17.7-14.3 32-32 32zM864.8 384l84.7 84.7c14 14 14 36.8 0 50.8s-36.8 14-50.8 0L814 434.8l-84.7 84.7c-14 14-36.8 14-50.8 0s-14-36.8 0-50.8l84.7-84.7-84.7-84.7c-14-14-14-36.8 0-50.8s36.8-14 50.8 0l84.7 84.7 84.7-84.7c14-14 36.8-14 50.8 0s14 36.8 0 50.8L864.8 384z"  horiz-adv-x="1024" />

    
    <glyph glyph-name="url" unicode="&#59957;" d="M192 320h-64V576c298.7-0.1 448-0.1 448 0v-192c0-35.3 28.7-64 64-64s64 28.7 64 64V576c0 70.7-57.3 128-128 128H128C57.3 704 0 646.7 0 576v-256c0-70.7 57.3-128 128-128h64c35.3 0 64 28.7 64 64s-28.7 64-64 64zM896 576h-64c-35.3 0-64-28.7-64-64s28.7-64 64-64h64v-256c-298.7 0.1-448 0.1-448 0V384c0 35.3-28.7 64-64 64s-64-28.7-64-64v-192c0-70.7 57.3-128 128-128h448c70.7 0 128 57.3 128 128V448c0 70.7-57.3 128-128 128z"  horiz-adv-x="1024" />

    
    <glyph glyph-name="currency" unicode="&#59958;" d="M960 736H64c-35.3 0-64-28.7-64-64v-576c0-35.3 28.7-64 64-64h896c35.3 0 64 28.7 64 64V672c0 35.3-28.7 64-64 64z m-32-482.2c-63.6-14.2-114-63.1-130.4-125.8H227.4C211 191.1 160 240.2 96 254V514c64 13.9 115 63 131.4 126h570.2C814 577.3 864.4 528.3 928 514.2v-260.4zM561.7 418.9l-48.1 9c-38.9 8-55.4 19-55.4 39.1 0 22.6 21.9 37.6 54.8 37.6 34 0 59-16.2 60.8-43.2h87c-0.9 60.2-41.9 101.9-112.8 112.2v6.5c0 19.9-16.1 36-36 36s-36-16.1-36-36v-6.9c-66.7-11.2-111.8-53.9-111.8-115.4 0-56.3 35.3-93.4 103.8-106.5l48.7-9.5c42.2-8.7 57.9-18.8 57.9-39.4 0-22.4-23.9-38.8-60.8-38.8-35 0-63.6 17-66.9 42.4H357c0.9-62.6 45.2-102.5 119-111.8v-6.1c0-19.9 16.1-36 36-36s36 16.1 36 36v6.5c74.3 10.7 120 54.5 120 118.4 0 58.5-33 91.7-106.3 105.9z"  horiz-adv-x="1024" />

    
    <glyph glyph-name="phone-number" unicode="&#59959;" d="M949.3 147.5L764.9 256c-37.5 20.8-61.5-15.6-61.5-15.6l-64.6-80.2c-21.9-19.8-35.4-10.4-35.4-10.4-240.7 110.4-322 314.5-322 314.5-14.6 27.1 2.1 45.8 2.1 45.8l92.7 80.2c25 22.9 7.3 46.9 7.3 46.9L266.8 830.8C181 840 134.5 790.2 134.5 790.2 101.2 757.9 72 679.8 72 679.8c-25-79.1 16.7-181.2 16.7-181.2C245 57.1 664.9-51.3 664.9-51.3c136.5-42.7 237.6 44.8 237.6 44.8 46.9 37.5 55.2 103.1 55.2 103.1 8.3 41.4-8.4 50.9-8.4 50.9z"  horiz-adv-x="1024" />

    
    <glyph glyph-name="todo" unicode="&#59960;" d="M352 608h320c17.7 0 32 14.3 32 32v64c0 17.7-14.3 32-32 32h-64c0 53-43 96-96 96s-96-43-96-96h-64c-17.7 0-32-14.3-32-32v-64c0-17.7 14.3-32 32-32zM832 640h-64v-96c0-17.7-14.3-32-32-32H288c-17.7 0-32 14.3-32 32v96h-64c-35.3 0-64-28.7-64-64v-576c0-35.3 28.7-64 64-64h640c35.3 0 64 28.7 64 64V576c0 35.3-28.7 64-64 64z m-94.1-305.9l-256-256c-18.7-18.7-49.1-18.7-67.9 0l-128 128c-18.7 18.7-18.7 49.1 0 67.9 18.7 18.7 49.1 18.7 67.9 0l94.1-94.1L670.1 402c18.7 18.7 49.1 18.7 67.9 0 18.7-18.8 18.7-49.2-0.1-67.9z"  horiz-adv-x="1024" />

    
    <glyph glyph-name="number" unicode="&#59961;" d="M896 256H768V512h128c35.3 0 64 28.7 64 64s-28.7 64-64 64H768V768c0 35.3-28.7 64-64 64s-64-28.7-64-64v-128H384V768c0 35.3-28.7 64-64 64s-64-28.7-64-64v-128H128c-35.3 0-64-28.7-64-64s28.7-64 64-64h128v-256H128c-35.3 0-64-28.7-64-64s28.7-64 64-64h128v-128c0-35.3 28.7-64 64-64s64 28.7 64 64V128h256v-128c0-35.3 28.7-64 64-64s64 28.7 64 64V128h128c35.3 0 64 28.7 64 64s-28.7 64-64 64z m-256 0H384V512h256v-256z"  horiz-adv-x="1024" />

    
    <glyph glyph-name="date" unicode="&#59962;" d="M348 640c24.3 0 44 19.7 44 44V788c0 24.3-19.7 44-44 44s-44-19.7-44-44v-104c0-24.3 19.7-44 44-44zM676 640c24.3 0 44 19.7 44 44V788c0 24.3-19.7 44-44 44s-44-19.7-44-44v-104c0-24.3 19.7-44 44-44zM891.1 768H760v-84c0-46.4-37.6-84-84-84s-84 37.6-84 84v84H432v-84c0-46.4-37.6-84-84-84s-84 37.6-84 84v84H132.9c-38 0-68.9-28.7-68.9-64v-704c0-35.3 30.9-64 68.9-64h758.2c38.1 0 68.9 28.7 68.9 64V704c0 35.3-30.9 64-68.9 64zM864 32H160V512h704v-480zM664 304h80c13.3 0 24 10.7 24 24v80c0 13.3-10.7 24-24 24h-80c-13.3 0-24-10.7-24-24v-80c0-13.3 10.7-24 24-24zM664 112h80c13.3 0 24 10.7 24 24v80c0 13.3-10.7 24-24 24h-80c-13.3 0-24-10.7-24-24v-80c0-13.3 10.7-24 24-24zM472 304h80c13.3 0 24 10.7 24 24v80c0 13.3-10.7 24-24 24h-80c-13.3 0-24-10.7-24-24v-80c0-13.3 10.7-24 24-24zM280 112h80c13.3 0 24 10.7 24 24v80c0 13.3-10.7 24-24 24h-80c-13.3 0-24-10.7-24-24v-80c0-13.3 10.7-24 24-24zM472 112h80c13.3 0 24 10.7 24 24v80c0 13.3-10.7 24-24 24h-80c-13.3 0-24-10.7-24-24v-80c0-13.3 10.7-24 24-24z"  horiz-adv-x="1024" />

    
    <glyph glyph-name="email" unicode="&#59963;" d="M744.9 382.9L960 174V591.7zM573.1 316.4l381.5 371.7c-9 18.8-28.3 31.8-50.5 31.8H120c-23 0-42.7-13.8-51.3-33.6l382.3-370c34-32.9 88-32.9 122.1 0.1zM623.2 264.8c-61.9-60.1-160.5-60.1-222.4 0l-70.1 68.1L69.4 80.1c9-19 28.3-32.1 50.6-32.1h784c22.4 0 41.7 13.1 50.6 32.1L693.4 332.9l-70.2-68.1zM64 591.7v-417.8l215.2 208.9z"  horiz-adv-x="1024" />

    
    <glyph glyph-name="merge-column" unicode="&#59964;" d="M416 832H128c-35.3 0-64-28.7-64-64v-768c0-35.3 28.7-64 64-64h288c35.3 0 64 28.7 64 64V128c0 19.9-16.1 36-36 36s-36-16.1-36-36v-120H136V344.1h169.3v-96c0-6.4 5.2-11.6 11.6-11.6 2.8 0 5.5 1 7.7 2.9L474 371.5c7.2 6.3 7.8 17.3 1.5 24.5l-1.5 1.5-149.5 132.1c-4.8 4.2-12.1 3.8-16.3-1-1.9-2.1-2.9-4.8-2.9-7.7V424H136V760h272v-120c0-19.9 16.1-36 36-36s36 16.1 36 36V768c0 35.3-28.7 64-64 64zM896 832H608c-35.3 0-64-28.7-64-64v-128c0-19.9 16.1-36 36-36s36 16.1 36 36V760h272v-335.9H718.8v97c0 2.8-1 5.5-2.9 7.7-4.2 4.8-11.5 5.2-16.3 1L550.1 397.6l-1.5-1.5c-6.3-7.2-5.7-18.1 1.5-24.5l149.5-132.1c2.1-1.9 4.8-2.9 7.7-2.9 6.4 0 11.6 5.2 11.6 11.6v96h169.2V8H616V128c0 19.9-16.1 36-36 36s-36-16.1-36-36v-128c0-35.3 28.7-64 64-64h288c35.3 0 64 28.7 64 64V768c0 35.3-28.7 64-64 64z"  horiz-adv-x="1024" />

    
    <glyph glyph-name="format" unicode="&#59965;" d="M0 534.893c15.515 0 30.6 1.294 45.253 3.882 14.653 2.588 27.905 6.9 39.757 12.94 11.852 6.038 21.98 13.801 30.384 23.29 8.404 9.49 13.899 21.135 16.485 34.937H192v-452.884h-80.808V476.665H0v58.228z m659.394-377.835h-309.01c0.43 37.525 9.481 70.304 27.151 98.34s41.805 52.405 72.404 73.109c14.654 10.783 29.953 21.242 45.9 31.378 15.946 10.136 30.599 21.027 43.959 32.673 13.36 11.645 24.35 24.261 32.97 37.848 8.62 13.587 13.144 29.222 13.575 46.906 0 8.195-0.97 16.929-2.909 26.202-1.94 9.274-5.71 17.9-11.313 25.88-5.603 7.979-13.36 14.664-23.273 20.056-9.912 5.391-22.841 8.087-38.787 8.087-14.654 0-26.829-2.911-36.526-8.734-9.697-5.823-17.454-13.802-23.272-23.938-5.819-10.136-10.128-22.105-12.93-35.908-2.801-13.802-4.417-28.682-4.848-44.641h-73.697c0 25.017 3.34 48.2 10.02 69.55 6.68 21.35 16.7 39.79 30.06 55.317 13.361 15.527 29.63 27.712 48.809 36.554C466.855 614.579 489.158 619 514.586 619c27.582 0 50.64-4.529 69.172-13.587 18.532-9.057 33.508-20.487 44.929-34.29 11.42-13.802 19.502-28.79 24.242-44.964 4.741-16.175 7.111-31.594 7.111-46.26 0-18.115-2.8-34.505-8.404-49.17-5.602-14.665-13.144-28.143-22.626-40.436-9.481-12.292-20.256-23.614-32.323-33.966a484.702 484.702 0 0 0-37.495-29.114 1010.047 1010.047 0 0 0-38.788-25.88c-12.93-8.194-24.889-16.39-35.879-24.584-10.99-8.195-20.579-16.714-28.767-25.556-8.189-8.842-13.792-18.223-16.809-28.144h220.445v-65.991zM832 422.318c12.067-0.43 24.135 0.432 36.202 2.589 12.067 2.156 22.842 5.93 32.323 11.322 9.482 5.391 17.132 12.831 22.95 22.32 5.818 9.49 8.727 21.135 8.727 34.937 0 19.41-6.572 34.937-19.717 46.583-13.145 11.645-30.06 17.468-50.748 17.468-12.929 0-24.134-2.588-33.616-7.764-9.481-5.175-17.347-12.184-23.596-21.026-6.249-8.843-10.882-18.763-13.899-29.761-3.017-11-4.31-22.321-3.879-33.967h-73.696c0.861 21.998 4.956 42.377 12.282 61.14 7.327 18.762 17.347 35.044 30.06 48.846 12.715 13.803 28.122 24.586 46.223 32.35C819.717 615.117 840.188 619 863.03 619c17.67 0 35.017-2.588 52.04-7.764 17.024-5.176 32.324-12.724 45.9-22.644 13.576-9.92 24.458-22.536 32.646-37.848 8.189-15.312 12.283-32.888 12.283-52.729 0-22.86-5.172-42.808-15.515-59.845-10.344-17.038-26.505-29.438-48.485-37.202v-1.294c25.859-5.175 46.007-18.007 60.444-38.495 14.438-20.487 21.657-45.396 21.657-74.726 0-21.566-4.31-40.867-12.93-57.904-8.619-17.037-20.255-31.486-34.908-43.348-14.654-11.861-31.677-21.027-51.071-27.496-19.394-6.47-39.865-9.705-61.414-9.705-26.29 0-49.24 3.774-68.849 11.322-19.61 7.548-35.986 18.223-49.131 32.026-13.145 13.802-23.165 30.407-30.06 49.817-6.896 19.41-10.56 40.975-10.99 64.698h73.696c-0.862-27.605 5.926-50.572 20.364-68.904 14.438-18.33 36.094-27.496 64.97-27.496 24.566 0 45.144 7.009 61.737 21.027 16.593 14.018 24.889 33.966 24.889 59.845 0 17.684-3.448 31.702-10.343 42.054-6.896 10.351-15.946 18.223-27.152 23.614-11.205 5.392-23.811 8.735-37.818 10.029-14.007 1.294-28.337 1.725-42.99 1.294v54.993z"  horiz-adv-x="1024" />

    
    <glyph glyph-name="text" unicode="&#59966;" d="M406.103 356l-36.289 115.454H202.557L166.268 356H64l146.071 420.683C221.57 809.799 252.779 832 287.835 832c35.06 0 66.278-22.192 77.798-55.305L512 356H406.103zM285.031 740.956L224 546.004h124.371l-61.03 194.952h-2.31zM116 40h792c28.719 0 52-23.281 52-52s-23.281-52-52-52H116c-28.719 0-52 23.281-52 52s23.281 52 52 52z m0 221.333h792c28.719 0 52-23.28 52-52 0-28.718-23.281-52-52-52H116c-28.719 0-52 23.282-52 52 0 28.72 23.281 52 52 52z m512 221.334h280c28.719 0 52-23.282 52-52 0-28.72-23.281-52-52-52H628c-28.719 0-52 23.28-52 52 0 28.718 23.281 52 52 52zM628 704h280c28.719 0 52-23.281 52-52s-23.281-52-52-52H628c-28.719 0-52 23.281-52 52s23.281 52 52 52z"  horiz-adv-x="1024" />

    
    <glyph glyph-name="new-document1" unicode="&#59893;" d="M824 896H413.8c-19.1 0-37.4-7.6-50.9-21.1L149.1 661.1a71.983 71.983 0 0 1-21.1-50.9V-56c0-39.8 32.2-72 72-72h660c19.9 0 36 16.1 36 36V824c0 39.8-32.2 72-72 72zM384 794.2V641H230.8L384 794.2zM200-56V569h220c19.9 0 36 16.1 36 36V824h368v-880H200z"  horiz-adv-x="1024" />

    
    <glyph glyph-name="import" unicode="&#59968;" d="M764 128c-19.9 0-36-16.1-36-36v-148H104V569h220c19.9 0 36 16.1 36 36V824h368v-212c0-19.9 16.1-36 36-36s36 16.1 36 36V824c0 39.8-32.2 72-72 72H317.8c-19.1 0-37.4-7.6-50.9-21.1L53.1 661.1A71.983 71.983 0 0 1 32 610.2V-56c0-39.8 32.2-72 72-72h660c15.9 0 29.4 10.3 34.2 24.7 1.2 3.6 1.8 7.4 1.8 11.3V92c0 19.9-16.1 36-36 36zM288 794.2V641H134.8L288 794.2zM655.3 448c-100 0-189-47.3-245.7-120.7l-64 63.9c-2.8 2.8-6.6 4.4-10.6 4.4-8.3 0-15-6.7-15-15V157c0-11 9-20 20-20h223.8c4 0 7.8 1.6 10.6 4.4 5.9 5.9 5.9 15.4 0 21.2L495 241.9c51.3 63.6 130 104.3 218.1 104.3 106.5 0 199-59.4 246.4-146.8C931 341.2 805.6 448 655.3 448z"  horiz-adv-x="1024" />

    
    <glyph glyph-name="docslist" unicode="&#59969;" d="M896 832H128c-35.3 0-64-28.7-64-64v-768c0-35.3 28.7-64 64-64h768c35.3 0 64 28.7 64 64V768c0 35.3-28.7 64-64 64z m-8-824H136V760h752v-752zM408 136h368c19.9 0 36 16.1 36 36s-16.1 36-36 36H408c-19.9 0-36-16.1-36-36s16.1-36 36-36zM408 560h368c19.9 0 36 16.1 36 36s-16.1 36-36 36H408c-19.9 0-36-16.1-36-36s16.1-36 36-36zM408 348h368c19.9 0 36 16.1 36 36s-16.1 36-36 36H408c-19.9 0-36-16.1-36-36s16.1-36 36-36zM256 596m-44 0a44 44 0 1 1 88 0 44 44 0 1 1-88 0ZM256 172m-44 0a44 44 0 1 1 88 0 44 44 0 1 1-88 0ZM256 384m-44 0a44 44 0 1 1 88 0 44 44 0 1 1-88 0Z"  horiz-adv-x="1024" />

    
    <glyph glyph-name="new-markdown" unicode="&#59970;" d="M824 896H413.8c-19.1 0-37.4-7.6-50.9-21.1L149.1 661.1a71.983 71.983 0 0 1-21.1-50.9V-56c0-39.8 32.2-72 72-72h660c19.9 0 36 16.1 36 36V824c0 39.8-32.2 72-72 72zM384 794.2V641H230.8L384 794.2zM200-56V569h220c19.9 0 36 16.1 36 36V824h368v-880H200zM512.1 247.1L432.4 448H320v-351h92.5V293.6L481.1 123h62l68.4 170.5V97H704V448H591.6z"  horiz-adv-x="1024" />

    
    <glyph glyph-name="searchreplace" unicode="&#59971;" d="M702.566 511.414c-5.834-61.918-29.202-118.716-65.069-165.343l310.45-310.45c15.62-15.62 15.62-40.947 0-56.568-15.621-15.62-40.948-15.62-56.569 0L581.23 289.202C526.88 246.474 458.406 221 384 221 207.269 221 64 364.717 64 542S207.269 863 384 863c30.827 0 60.635-4.373 88.843-12.533l-20.248-70.075C430.81 786.648 407.796 790 384 790c-136.967 0-248-111.033-248-248 0-136.967 111.033-248 248-248 129.048 0 235.074 98.565 246.903 224.52l71.663-7.106zM620.167 700l48.284-48.284c12.497-12.497 12.497-32.758 0-45.255s-32.758-12.497-45.255 0L521.373 708.284c-6.41 6.41-9.532 14.861-9.367 23.26-0.165 8.4 2.957 16.85 9.367 23.26L623.196 856.627c12.497 12.497 32.758 12.497 45.255 0 12.497-12.496 12.497-32.758 0-45.254L621.078 764H756c94.993 0 172-77.007 172-172v-81.065c0-17.673-14.327-32-32-32-17.673 0-32 14.327-32 32V592c0 59.647-48.353 108-108 108H620.167zM371.833 68.935L323.55 117.22c-12.497 12.496-12.497 32.758 0 45.254 12.497 12.497 32.758 12.497 45.255 0l101.823-101.823c6.41-6.41 9.532-14.86 9.367-23.26 0.165-8.399-2.957-16.85-9.367-23.26L368.804-87.692c-12.497-12.497-32.758-12.497-45.255 0s-12.497 32.758 0 45.255l47.373 47.372H236c-94.993 0-172 77.007-172 172V230c0 17.673 14.327 32 32 32 17.673 0 32-14.327 32-32v-53.065c0-59.646 48.353-108 108-108h135.833z"  horiz-adv-x="1024" />

    
    <glyph glyph-name="clip" unicode="&#59972;" d="M944 344H296c-22.091 0-40 17.909-40 40s17.909 40 40 40h648V728c0 22.091 17.909 40 40 40s40-17.909 40-40v-688c0-22.091-17.909-40-40-40s-40 17.909-40 40V344zM40 768c22.091 0 40-17.909 40-40v-688c0-22.091-17.909-40-40-40S0 17.909 0 40V728c0 22.091 17.909 40 40 40z"  horiz-adv-x="1024" />

    
    <glyph glyph-name="column-after1" unicode="&#59945;" d="M900 448H772c-17.7 0-32-14.3-32-32v-448c0-17.7 14.3-32 32-32h128c17.7 0 32 14.3 32 32V416c0 17.7-14.3 32-32 32zM956.8 698.4L849.2 820.7c-0.5 0.6-1.1 1.2-1.7 1.7-7.8 6.9-19.8 6.1-26.7-1.7L713.2 698.4c-2-2.3-3.1-5.3-3.1-8.3 0-7 5.6-12.6 12.6-12.6H795v-126c0-22.1 17.9-40 40-40s40 17.9 40 40v126h72.3c3.1 0 6 1.1 8.3 3.1 5.3 4.7 5.8 12.6 1.2 17.8zM580 796c0 19.9-16.1 36-36 36s-36-16.1-36-36v-404H360V796c0 19.9-16.1 36-36 36s-36-16.1-36-36v-404H140V796c0 19.9-16.1 36-36 36s-36-16.1-36-36v-412c0-35.3 28.7-64 64-64h512v72h-64V796z"  horiz-adv-x="1024" />

    
    <glyph glyph-name="column-before1" unicode="&#59947;" d="M924 832c-19.9 0-36-16.1-36-36v-404H740V796c0 19.9-16.1 36-36 36s-36-16.1-36-36v-404H520V796c0 19.9-16.1 36-36 36s-36-16.1-36-36v-404h-64v-72h512c35.3 0 64 28.7 64 64V796c0 19.9-16.1 36-36 36zM256 448H128c-17.7 0-32-14.3-32-32v-448c0-17.7 14.3-32 32-32h128c17.7 0 32 14.3 32 32V416c0 17.7-14.3 32-32 32zM207.2 820.7c-6.9 7.8-18.8 8.6-26.7 1.7-0.6-0.5-1.2-1.1-1.7-1.7L71.2 698.4c-4.6-5.2-4.1-13.2 1.1-17.8 2.3-2 5.3-3.1 8.3-3.1H153v-126c0-22.1 17.9-40 40-40s40 17.9 40 40v126h72.3c7 0 12.6 5.6 12.6 12.6 0 3.1-1.1 6-3.1 8.3L207.2 820.7z"  horiz-adv-x="1024" />

    
    <glyph glyph-name="column-above" unicode="&#59946;" d="M929 801H481c-17.7 0-32-14.3-32-32v-128c0-17.7 14.3-32 32-32h448c17.7 0 32 14.3 32 32V769c0 17.7-14.3 32-32 32zM76.3 691.8l122.2-107.6c5.2-4.6 13.2-4.1 17.8 1.1 2 2.3 3.1 5.3 3.1 8.3V666h126c22.1 0 40 17.9 40 40s-17.9 40-40 40h-126V818.3c0 7-5.6 12.6-12.6 12.6-3.1 0-6-1.1-8.3-3.1L76.3 720.2c-7.8-6.9-8.6-18.8-1.7-26.7 0.6-0.6 1.1-1.2 1.7-1.7zM504 448H100c-19.9 0-36-16.1-36-36s16.1-36 36-36h404v-148H100c-19.9 0-36-16.1-36-36s16.1-36 36-36h404v-148H100c-19.9 0-36-16.1-36-36s16.1-36 36-36h412c35.3 0 64 28.7 64 64V512h-72v-64z"  horiz-adv-x="1024" />

    
    <glyph glyph-name="column-below" unicode="&#59944;" d="M929 158H481c-17.7 0-32-14.3-32-32v-128c0-17.7 14.3-32 32-32h448c17.7 0 32 14.3 32 32V126c0 17.7-14.3 32-32 32zM345.5 101h-126v72.3c0 3.1-1.1 6-3.1 8.3-4.6 5.2-12.6 5.7-17.8 1.1L76.3 75.20000000000005c-0.6-0.5-1.2-1.1-1.7-1.7-6.9-7.8-6.1-19.8 1.7-26.7l122.2-107.6c2.3-2 5.3-3.1 8.3-3.1 7 0 12.6 5.6 12.6 12.6V21h126c22.1 0 40 17.9 40 40 0.1 22.1-17.8 40-39.9 40zM100 391c-19.9 0-36-16.1-36-36s16.1-36 36-36h404v-64h72V767c0 35.3-28.7 64-64 64H100c-19.9 0-36-16.1-36-36s16.1-36 36-36h404v-148H100c-19.9 0-36-16.1-36-36s16.1-36 36-36h404v-148H100z"  horiz-adv-x="1024" />

    
    <glyph glyph-name="pic-left1" unicode="&#59912;" d="M36 696h952c19.9 0 36 16.1 36 36s-16.1 36-36 36H36c-19.9 0-36-16.1-36-36s16.1-36 36-36zM988 72H36c-19.9 0-36-16.1-36-36s16.1-36 36-36h952c19.9 0 36 16.1 36 36s-16.1 36-36 36zM164 576c-55.1 0-100-44.9-100-100v-184c0-55.1 44.9-100 100-100h504c55.1 0 100 44.9 100 100V476c0 55.1-44.9 100-100 100H164z m532-100v-184c0-15.4-12.6-28-28-28H164c-15.4 0-28 12.6-28 28V476c0 15.4 12.6 28 28 28h504c15.4 0 28-12.6 28-28z"  horiz-adv-x="1024" />

    
    <glyph glyph-name="pic-right1" unicode="&#59913;" d="M36 696h952c19.9 0 36 16.1 36 36s-16.1 36-36 36H36c-19.9 0-36-16.1-36-36s16.1-36 36-36zM988 72H36c-19.9 0-36-16.1-36-36s16.1-36 36-36h952c19.9 0 36 16.1 36 36s-16.1 36-36 36zM356 576c-55.1 0-100-44.9-100-100v-184c0-55.1 44.9-100 100-100h504c55.1 0 100 44.9 100 100V476c0 55.1-44.9 100-100 100H356z m532-100v-184c0-15.4-12.6-28-28-28H356c-15.4 0-28 12.6-28 28V476c0 15.4 12.6 28 28 28h504c15.4 0 28-12.6 28-28z"  horiz-adv-x="1024" />

    
    <glyph glyph-name="pic-center1" unicode="&#59914;" d="M36 696h952c19.9 0 36 16.1 36 36s-16.1 36-36 36H36c-19.9 0-36-16.1-36-36s16.1-36 36-36zM988 72H36c-19.9 0-36-16.1-36-36s16.1-36 36-36h952c19.9 0 36 16.1 36 36s-16.1 36-36 36zM228 576c-55.1 0-100-44.9-100-100v-184c0-55.1 44.9-100 100-100h568c55.1 0 100 44.9 100 100V476c0 55.1-44.9 100-100 100H228z m596-100v-184c0-15.4-12.6-28-28-28H228c-15.4 0-28 12.6-28 28V476c0 15.4 12.6 28 28 28h568c15.4 0 28-12.6 28-28z"  horiz-adv-x="1024" />

    
    <glyph glyph-name="pic-breaktext" unicode="&#59977;" d="M924 768H100C44.9 768 0 723.1 0 668v-440c0-55.1 44.9-100 100-100h824c55.1 0 100 44.9 100 100V668c0 55.1-44.9 100-100 100z m28-540c0-15.4-12.6-28-28-28H100c-15.4 0-28 12.6-28 28V668c0 15.4 12.6 28 28 28h824c15.4 0 28-12.6 28-28v-440zM854 72H170c-19.9 0-36-16.1-36-36s16.1-36 36-36h684c19.9 0 36 16.1 36 36s-16.1 36-36 36z"  horiz-adv-x="1024" />

    
    <glyph glyph-name="flowchart" unicode="&#59973;" d="M128 768v-96h512v96H128z m544-544v-64h256c17.673 0 32-14.327 32-32v-160c0-17.673-14.327-32-32-32H352c-17.673 0-32 14.327-32 32V128c0 17.673 14.327 32 32 32h256v64H352c-17.673 0-32 14.327-32 32V416c0 17.673 14.327 32 32 32h256.068l0.01 32.137c0 8.836-7.163 16-16 16h-0.015l-176-0.252c-35.346-0.034-64.028 28.591-64.063 63.937v0.063h0.063V608H96c-17.673 0-32 14.327-32 32V800c0 17.673 14.327 32 32 32h576c17.673 0 32-14.327 32-32v-160c0-17.673-14.327-32-32-32H416.056l-0.009-32.052c0-8.836 7.164-16 16-16h0.016l176 0.252c35.346 0.034 64.028-28.591 64.063-63.937v-0.063l-0.047-48.2H928c17.673 0 32-14.327 32-32v-160c0-17.673-14.327-32-32-32H672zM384 384v-96h512v96H384z m0-288v-96h512v96H384z"  horiz-adv-x="1024" />

    
    <glyph glyph-name="magnify" unicode="&#59974;" d="M416 200c154.64 0 280 125.36 280 280S570.64 760 416 760 136 634.64 136 480s125.36-280 280-280z m274.695 59.874L946.068 4.5c15.621-15.62 15.621-40.947 0-56.568-15.62-15.621-40.947-15.621-56.568 0l-255.601 255.6C573.964 156.23 498.279 128 416 128 221.596 128 64 285.596 64 480S221.596 832 416 832s352-157.596 352-352c0-83.302-28.936-159.845-77.305-220.126zM288 512h256c17.673 0 32-14.327 32-32 0-17.673-14.327-32-32-32H288c-17.673 0-32 14.327-32 32 0 17.673 14.327 32 32 32z m160 96v-256c0-17.673-14.327-32-32-32-17.673 0-32 14.327-32 32V608c0 17.673 14.327 32 32 32 17.673 0 32-14.327 32-32z"  horiz-adv-x="1024" />

    
    <glyph glyph-name="shrink" unicode="&#59975;" d="M416 200c154.64 0 280 125.36 280 280S570.64 760 416 760 136 634.64 136 480s125.36-280 280-280z m274.695 59.874L946.068 4.5c15.621-15.62 15.621-40.947 0-56.568-15.62-15.621-40.947-15.621-56.568 0l-255.601 255.6C573.964 156.23 498.279 128 416 128 221.596 128 64 285.596 64 480S221.596 832 416 832s352-157.596 352-352c0-83.302-28.936-159.845-77.305-220.126zM288 512h256c17.673 0 32-14.327 32-32 0-17.673-14.327-32-32-32H288c-17.673 0-32 14.327-32 32 0 17.673 14.327 32 32 32z"  horiz-adv-x="1024" />

    
    <glyph glyph-name="drag" unicode="&#59976;" d="M192 798c0 54.124 43.876 98 98 98s98-43.876 98-98-43.876-98-98-98-98 43.876-98 98z m0-414c0 54.124 43.876 98 98 98s98-43.876 98-98-43.876-98-98-98-98 43.876-98 98z m0-414c0 54.124 43.876 98 98 98s98-43.876 98-98-43.876-98-98-98-98 43.876-98 98zM636 798c0 54.124 43.876 98 98 98s98-43.876 98-98-43.876-98-98-98-98 43.876-98 98z m0-414c0 54.124 43.876 98 98 98s98-43.876 98-98-43.876-98-98-98-98 43.876-98 98z m0-414c0 54.124 43.876 98 98 98s98-43.876 98-98-43.876-98-98-98-98 43.876-98 98z"  horiz-adv-x="1024" />

    
    <glyph glyph-name="clone" unicode="&#59978;" d="M328 568v-560h560V568H328z m-40 72h640c17.673 0 32-14.327 32-32v-640c0-17.673-14.327-32-32-32H288c-17.673 0-32 14.327-32 32V608c0 17.673 14.327 32 32 32zM136 200V760h560v-48a8 8 0 0 1 8-8h56a8 8 0 0 1 8 8V800c0 17.673-14.327 32-32 32H96c-17.673 0-32-14.327-32-32v-640c0-17.673 14.327-32 32-32h88a8 8 0 0 1 8 8v56a8 8 0 0 1-8 8h-48z"  horiz-adv-x="1024" />

    
    <glyph glyph-name="pic-inline-left" unicode="&#59979;" d="M36 696h952c19.9 0 36 16.1 36 36s-16.1 36-36 36H36c-19.9 0-36-16.1-36-36s16.1-36 36-36zM988 72H36c-19.9 0-36-16.1-36-36s16.1-36 36-36h952c19.9 0 36 16.1 36 36s-16.1 36-36 36zM988 536H740c-19.9 0-36-16.1-36-36s16.1-36 36-36h248c19.9 0 36 16.1 36 36s-16.1 36-36 36zM988 304H740c-19.9 0-36-16.1-36-36s16.1-36 36-36h248c19.9 0 36 16.1 36 36s-16.1 36-36 36zM64 192h448c35.3 0 64 28.7 64 64V512c0 35.3-28.7 64-64 64H64c-35.3 0-64-28.7-64-64v-256c0-35.3 28.7-64 64-64z m8 312h432v-240H72V504z"  horiz-adv-x="1024" />

    
    <glyph glyph-name="pic-inline" unicode="&#59915;" d="M36 696h952c19.9 0 36 16.1 36 36s-16.1 36-36 36H36c-19.9 0-36-16.1-36-36s16.1-36 36-36zM988 72H36c-19.9 0-36-16.1-36-36s16.1-36 36-36h952c19.9 0 36 16.1 36 36s-16.1 36-36 36zM988 536H868c-19.9 0-36-16.1-36-36s16.1-36 36-36h120c19.9 0 36 16.1 36 36s-16.1 36-36 36zM36 464h120c19.9 0 36 16.1 36 36s-16.1 36-36 36H36c-19.9 0-36-16.1-36-36s16.1-36 36-36zM988 304H868c-19.9 0-36-16.1-36-36s16.1-36 36-36h120c19.9 0 36 16.1 36 36s-16.1 36-36 36zM36 232h120c19.9 0 36 16.1 36 36s-16.1 36-36 36H36c-19.9 0-36-16.1-36-36s16.1-36 36-36zM336 576c-35.3 0-64-28.7-64-64v-256c0-35.3 28.7-64 64-64h352c35.3 0 64 28.7 64 64V512c0 35.3-28.7 64-64 64H336z m344-312H344V504h336v-240z"  horiz-adv-x="1024" />

    
    <glyph glyph-name="pic-inline-right" unicode="&#59981;" d="M36 696h952c19.9 0 36 16.1 36 36s-16.1 36-36 36H36c-19.9 0-36-16.1-36-36s16.1-36 36-36zM988 72H36c-19.9 0-36-16.1-36-36s16.1-36 36-36h952c19.9 0 36 16.1 36 36s-16.1 36-36 36zM36 464h248c19.9 0 36 16.1 36 36s-16.1 36-36 36H36c-19.9 0-36-16.1-36-36s16.1-36 36-36zM36 232h248c19.9 0 36 16.1 36 36s-16.1 36-36 36H36c-19.9 0-36-16.1-36-36s16.1-36 36-36zM960 576H512c-35.3 0-64-28.7-64-64v-256c0-35.3 28.7-64 64-64h448c35.3 0 64 28.7 64 64V512c0 35.3-28.7 64-64 64z m-8-312H520V504h432v-240z"  horiz-adv-x="1024" />

    
    <glyph glyph-name="subnode" unicode="&#59566;" d="M256 768h64v-64h-64zM384 768h64v-64h-64zM384 512h64v-64h-64zM512 512h64v-64h-64zM512 768h64v-64h-64zM512 640h64v-64h-64zM128 768h64v-64h-64zM0 768h64v-64h-64zM0 640h64v-64h-64zM256 512h64v-64h-64zM128 512h64v-64h-64zM0 512h64v-64h-64zM448 384v-128h-256v128h-64v-192h320v-128h576v320h-576z m512-256h-448v192h448v-192z"  horiz-adv-x="1024" />

    
    <glyph glyph-name="sisternode" unicode="&#59567;" d="M192 768h64v-64h-64zM320 768h64v-64h-64zM192 640h64v-64h-64zM448 768h64v-64h-64zM704 768h64v-64h-64zM704 512h64v-64h-64zM576 768h64v-64h-64zM320 512h64v-64h-64zM832 640h64v-64h-64zM192 512h64v-64h-64zM832 768h64v-64h-64zM832 512h64v-64h-64zM448 512h64v-64h-64zM576 512h64v-64h-64zM576 448h-64v-128h-320v-320h704v320h-320v128z m256-384h-576v192h576v-192z"  horiz-adv-x="1024" />

    
    <glyph glyph-name="plus-square" unicode="&#59568;" d="M768 416h-224v224c0 19.2-12.8 32-32 32s-32-12.8-32-32v-224h-224c-19.2 0-32-12.8-32-32s12.8-32 32-32h224v-224c0-19.2 12.8-32 32-32s32 12.8 32 32v224h224c19.2 0 32 12.8 32 32s-12.8 32-32 32zM800 800h-576c-70.4 0-128-57.6-128-128v-576c0-70.4 57.6-128 128-128h576c70.4 0 128 57.6 128 128v576c0 70.4-57.6 128-128 128z m64-704c0-38.4-25.6-64-64-64h-576c-38.4 0-64 25.6-64 64v576c0 38.4 25.6 64 64 64h576c38.4 0 64-25.6 64-64v-576z"  horiz-adv-x="1024" />

    
    <glyph glyph-name="minus-square" unicode="&#59569;" d="M768 416h-512c-19.2 0-32-12.8-32-32s12.8-32 32-32h512c19.2 0 32 12.8 32 32s-12.8 32-32 32zM800 800h-576c-70.4 0-128-57.6-128-128v-576c0-70.4 57.6-128 128-128h576c70.4 0 128 57.6 128 128v576c0 70.4-57.6 128-128 128z m64-704c0-38.4-25.6-64-64-64h-576c-38.4 0-64 25.6-64 64v576c0 38.4 25.6 64 64 64h576c38.4 0 64-25.6 64-64v-576z"  horiz-adv-x="1024" />

    
    <glyph glyph-name="mindmap" unicode="&#59570;" d="M1024 640v256h-384v-96h-128v-384h-64v96h-448v-256h448v96h64v-416h128v-64h384v256h-384v-128h-64v352h64v-96h384v256h-384v-96h-64v320h64v-96h384z m-320-576h256v-128h-256v128z m0 384h256v-128h-256v128z m0 384h256v-128h-256v128z"  horiz-adv-x="1024" />

    
    <glyph glyph-name="collapse" unicode="&#59571;" d="M704 256h-128v-128h-576v320h576v-128h128v256h320v-64h-256v-192h256v-64h-256v-192h256v-64h-320v256z m-448 416v-96l-192 128 192 128v-96h345.6v-64h-345.6z"  horiz-adv-x="1024" />

    
    <glyph glyph-name="expand" unicode="&#59572;" d="M448 672h-345.6v64h345.6v96l192-128-192-128v96z m256-416h-128v-128h-576v320h576v-128h128v256h320v-64h-256v-192h256v-64h-256v-192h256v-64h-320v256z"  horiz-adv-x="1024" />

    


  </font>
</defs>
</svg>
