<?xml version="1.0" standalone="no"?><!DOCTYPE svg PUBLIC "-//W3C//DTD SVG 1.1//EN" "http://www.w3.org/Graphics/SVG/1.1/DTD/svg11.dtd"><svg t="1550936222538" class="icon" style="" viewBox="0 0 1024 1024" version="1.1" xmlns="http://www.w3.org/2000/svg" p-id="4409" xmlns:xlink="http://www.w3.org/1999/xlink" width="48" height="48"><defs><style type="text/css"></style></defs><path d="M992.544 595.296a31.968 31.968 0 0 0-45.248 0l-201.376 201.376-95.04-95.04a31.968 31.968 0 1 0-45.248 45.248l117.664 117.664a31.968 31.968 0 0 0 45.248 0l224-224a31.968 31.968 0 0 0 0-45.248zM800 352a32 32 0 0 0-32-32H256a32 32 0 0 0 0 64h512a32 32 0 0 0 32-32zM256 544a32 32 0 0 0 0 64h288a32 32 0 0 0 0-64H256z" p-id="4410" fill="#1296db"></path><path d="M771.104 928H195.04C175.904 928 160 911.68 160 891.072V132.928C160 112.32 175.904 96 195.04 96h633.92C848.096 96 864 112.32 864 132.928v350.528a32 32 0 0 0 64 0V132.928C928 77.376 883.84 32 828.96 32H195.04C140.16 32 96 77.376 96 132.928v758.144C96 946.624 140.16 992 195.04 992h576.064a32 32 0 0 0 0-64z" p-id="4411" fill="#1296db"></path></svg>