<?xml version="1.0" standalone="no"?><!DOCTYPE svg PUBLIC "-//W3C//DTD SVG 1.1//EN" "http://www.w3.org/Graphics/SVG/1.1/DTD/svg11.dtd"><svg t="1550936261318" class="icon" style="" viewBox="0 0 1024 1024" version="1.1" xmlns="http://www.w3.org/2000/svg" p-id="4721" xmlns:xlink="http://www.w3.org/1999/xlink" width="48" height="48"><defs><style type="text/css"></style></defs><path d="M512 64C357.472 64 96 90.944 96 192v634.528c0 101.024 261.472 128 416 128 154.496 0 416-26.976 416-128V192c0-101.056-261.504-128-416-128zM160 457.728C247.328 499.072 405.184 512 512 512c106.88 0 264.864-12.96 352.16-54.368l0.096 148.256C852.352 629.728 725.056 672 512 672c-212.096 0-339.136-41.888-352-65.76v-148.512zM512 448c-212.096 0-339.136-41.888-352-65.76v-116.48C247.328 307.072 405.184 320 512 320c106.848 0 264.736-12.928 352.032-54.304l0.064 116.384C851.648 405.952 724.512 448 512 448z m0-320c206.88 0 332.96 39.872 351.008 64-18.048 24.128-144.128 64-351.008 64S179.04 216.128 161.024 192C179.04 167.872 305.12 128 512 128z m0 762.528c-213.568 0-341.056-42.496-352-64v-144.8C247.328 723.072 405.184 736 512 736c106.944 0 265.056-12.992 352.32-54.432l0.096 142.688c-11.392 23.776-138.848 66.272-352.416 66.272z" p-id="4722" fill="#1296db"></path></svg>