<?xml version="1.0" standalone="no"?><!DOCTYPE svg PUBLIC "-//W3C//DTD SVG 1.1//EN" "http://www.w3.org/Graphics/SVG/1.1/DTD/svg11.dtd"><svg t="1550936303863" class="icon" style="" viewBox="0 0 1024 1024" version="1.1" xmlns="http://www.w3.org/2000/svg" p-id="5024" xmlns:xlink="http://www.w3.org/1999/xlink" width="48" height="48"><defs><style type="text/css"></style></defs><path d="M800 736H448a32 32 0 0 0 0 64h352a32 32 0 0 0 0-64zM800 480H448a32 32 0 0 0 0 64h352a32 32 0 0 0 0-64zM800 224H448a32 32 0 0 0 0 64h352a32 32 0 0 0 0-64zM304 736h-64a32 32 0 0 0 0 64h64a32 32 0 0 0 0-64zM304 480h-64a32 32 0 0 0 0 64h64a32 32 0 0 0 0-64zM304 224h-64a32 32 0 0 0 0 64h64a32 32 0 0 0 0-64z" p-id="5025" fill="#1296db"></path><path d="M864 96H160a96 96 0 0 0-96 96v640a96 96 0 0 0 96 96h704a96 96 0 0 0 96-96V192a96 96 0 0 0-96-96z m32 736a32 32 0 0 1-32 32H160a32 32 0 0 1-32-32v-160h672a32 32 0 0 0 0-64H128v-192h672a32 32 0 0 0 0-64H128V192a32 32 0 0 1 32-32h704a32 32 0 0 1 32 32v640z" p-id="5026" fill="#1296db"></path></svg>