<?xml version="1.0" standalone="no"?><!DOCTYPE svg PUBLIC "-//W3C//DTD SVG 1.1//EN" "http://www.w3.org/Graphics/SVG/1.1/DTD/svg11.dtd"><svg t="1550936327478" class="icon" style="" viewBox="0 0 1024 1024" version="1.1" xmlns="http://www.w3.org/2000/svg" p-id="5260" xmlns:xlink="http://www.w3.org/1999/xlink" width="48" height="48"><defs><style type="text/css"></style></defs><path d="M512 800m-96 0a96 96 0 1 0 192 0 96 96 0 1 0-192 0Z" p-id="5261" fill="#1296db"></path><path d="M748.096 501.44a324.608 324.608 0 0 0-230.272-95.36c-87.52 0-169.6 34.72-230.272 95.36a326.72 326.72 0 0 0-42.464 52.256 32 32 0 1 0 53.568 35.008 263.616 263.616 0 0 1 34.144-41.984 260.704 260.704 0 0 1 185.024-76.64c70.368 0 136.224 27.872 184.992 76.64 12.8 12.8 24.256 26.88 34.144 42.016a32 32 0 0 0 53.568-35.008 325.024 325.024 0 0 0-42.432-52.288z" p-id="5262" fill="#1296db"></path><path d="M991.776 384.576a569.824 569.824 0 0 0-73.792-90.816C812.544 188.32 669.92 128 517.824 128S223.072 188.32 117.664 293.76a568.416 568.416 0 0 0-73.792 90.816 32 32 0 0 0 53.568 35.008 505.76 505.76 0 0 1 65.472-80.608C256.448 245.472 382.88 192 517.824 192s261.344 53.472 354.912 147.008a502.944 502.944 0 0 1 65.472 80.608 32 32 0 1 0 53.568-35.04z" p-id="5263" fill="#1296db"></path></svg>