<?xml version="1.0" standalone="no"?><!DOCTYPE svg PUBLIC "-//W3C//DTD SVG 1.1//EN" "http://www.w3.org/Graphics/SVG/1.1/DTD/svg11.dtd"><svg t="1550936375901" class="icon" style="" viewBox="0 0 1024 1024" version="1.1" xmlns="http://www.w3.org/2000/svg" p-id="5808" xmlns:xlink="http://www.w3.org/1999/xlink" width="48" height="48"><defs><style type="text/css"></style></defs><path d="M512 832m-64 0a64 64 0 1 0 128 0 64 64 0 1 0-128 0Z" p-id="5809" fill="#1296db"></path><path d="M790.4 32H233.6C182.72 32 144 78.336 144 132.928v758.144C144 945.664 182.72 992 233.6 992h556.8c50.88 0 89.6-46.336 89.6-100.928V132.928C880 78.336 841.28 32 790.4 32zM233.6 96h556.8c12.736 0 25.6 15.392 25.6 36.928V160h-608v-27.072C208 111.392 220.864 96 233.6 96z m556.8 832H233.6c-12.736 0-25.6-15.392-25.6-36.928V224h608v667.072c0 21.536-12.864 36.928-25.6 36.928z" p-id="5810" fill="#1296db"></path><path d="M704 560H320a32 32 0 1 0 0 64h384a32 32 0 1 0 0-64zM320 432h256.576a32 32 0 1 0 0-64H320a32 32 0 0 0 0 64z" p-id="5811" fill="#1296db"></path></svg>