<?xml version="1.0" standalone="no"?><!DOCTYPE svg PUBLIC "-//W3C//DTD SVG 1.1//EN" "http://www.w3.org/Graphics/SVG/1.1/DTD/svg11.dtd"><svg t="1550936410214" class="icon" style="" viewBox="0 0 1024 1024" version="1.1" xmlns="http://www.w3.org/2000/svg" p-id="5969" xmlns:xlink="http://www.w3.org/1999/xlink" width="48" height="48"><defs><style type="text/css"></style></defs><path d="M800 32H224a64 64 0 0 0-64 64v832a64 64 0 0 0 64 64h576a64 64 0 0 0 64-64V96a64 64 0 0 0-64-64zM224 96h576v288H224V96z m576 832H224V448h576v480z" p-id="5970" fill="#1296db"></path><path d="M320 160a32 32 0 0 0-32 32v96a32 32 0 0 0 64 0V192a32 32 0 0 0-32-32zM325.344 768a32 32 0 0 0 32-32v-96a32 32 0 0 0-64 0v96a32 32 0 0 0 32 32z" p-id="5971" fill="#1296db"></path></svg>